<svg width="272" height="272" viewBox="0 0 272 272" fill="none" xmlns="http://www.w3.org/2000/svg">
<g clip-path="url(#clip0_50_225)">
<path d="M136 15.1111C112.09 15.1111 88.7178 22.2011 68.8378 35.4846C48.9577 48.768 33.4631 67.6483 24.3133 89.7378C15.1635 111.827 12.7695 136.134 17.434 159.584C22.0985 183.034 33.6121 204.575 50.5187 221.481C67.4253 238.388 88.9656 249.902 112.416 254.566C135.866 259.231 160.173 256.837 182.262 247.687C204.352 238.537 223.232 223.042 236.515 203.162C249.799 183.282 256.889 159.91 256.889 136C256.889 103.938 244.152 73.1897 221.481 50.5186C198.81 27.8476 168.062 15.1111 136 15.1111ZM214.956 95.4267L115.676 194.631L57.0445 136C55.0406 133.996 53.9149 131.278 53.9149 128.444C53.9149 125.611 55.0406 122.893 57.0445 120.889C59.0483 118.885 61.7661 117.759 64.6 117.759C67.4339 117.759 70.1517 118.885 72.1556 120.889L115.827 164.56L199.996 80.4667C200.988 79.4745 202.166 78.6874 203.462 78.1504C204.758 77.6134 206.148 77.3371 207.551 77.3371C208.954 77.3371 210.344 77.6134 211.64 78.1504C212.937 78.6874 214.114 79.4745 215.107 80.4667C216.099 81.4589 216.886 82.6368 217.423 83.9332C217.96 85.2296 218.236 86.619 218.236 88.0222C218.236 89.4254 217.96 90.8149 217.423 92.1113C216.886 93.4076 216.099 94.5856 215.107 95.5778L214.956 95.4267Z" fill="#19AF00"/>
</g>
<defs>
<clipPath id="clip0_50_225">
<rect width="272" height="272" fill="white"/>
</clipPath>
</defs>
</svg>
