<svg width="202" height="209" viewBox="0 0 202 209" fill="none" xmlns="http://www.w3.org/2000/svg">
<rect x="15" y="33" width="171" height="144" rx="10" fill="#AF4747"/>
<g filter="url(#filter0_d_63_112)">
<rect x="30" y="41" width="142" height="128" rx="10" fill="white" shape-rendering="crispEdges"/>
<path d="M60.6054 116.3C59.1654 116.3 57.9221 115.987 56.8754 115.36C55.8354 114.733 55.0321 113.857 54.4654 112.73C53.9054 111.603 53.6254 110.293 53.6254 108.8C53.6254 107.307 53.9054 105.997 54.4654 104.87C55.0321 103.743 55.8354 102.867 56.8754 102.24C57.9221 101.613 59.1654 101.3 60.6054 101.3C62.2587 101.3 63.6454 101.71 64.7654 102.53C65.8921 103.35 66.6854 104.46 67.1454 105.86L64.4054 106.62C64.1387 105.747 63.6887 105.07 63.0554 104.59C62.4221 104.103 61.6054 103.86 60.6054 103.86C59.6921 103.86 58.9287 104.063 58.3154 104.47C57.7087 104.877 57.2521 105.45 56.9454 106.19C56.6387 106.93 56.4854 107.8 56.4854 108.8C56.4854 109.8 56.6387 110.67 56.9454 111.41C57.2521 112.15 57.7087 112.723 58.3154 113.13C58.9287 113.537 59.6921 113.74 60.6054 113.74C61.6054 113.74 62.4221 113.497 63.0554 113.01C63.6887 112.523 64.1387 111.847 64.4054 110.98L67.1454 111.74C66.6854 113.14 65.8921 114.25 64.7654 115.07C63.6454 115.89 62.2587 116.3 60.6054 116.3ZM73.3673 116.32C72.5206 116.32 71.8306 116.177 71.2973 115.89C70.7639 115.603 70.3473 115.24 70.0473 114.8C69.7539 114.36 69.5439 113.903 69.4173 113.43C69.2906 112.95 69.2139 112.513 69.1873 112.12C69.1606 111.727 69.1473 111.44 69.1473 111.26V105.2H71.9073V110.3C71.9073 110.547 71.9206 110.863 71.9473 111.25C71.9739 111.63 72.0573 112.013 72.1973 112.4C72.3373 112.787 72.5639 113.11 72.8773 113.37C73.1973 113.63 73.6473 113.76 74.2273 113.76C74.4606 113.76 74.7106 113.723 74.9773 113.65C75.2439 113.577 75.4939 113.437 75.7273 113.23C75.9606 113.017 76.1506 112.707 76.2973 112.3C76.4506 111.887 76.5273 111.347 76.5273 110.68L78.0873 111.42C78.0873 112.273 77.9139 113.073 77.5673 113.82C77.2206 114.567 76.6973 115.17 75.9973 115.63C75.3039 116.09 74.4273 116.32 73.3673 116.32ZM76.8673 116V112.42H76.5273V105.2H79.2673V116H76.8673ZM86.2821 116.3C84.9221 116.3 83.8221 115.993 82.9821 115.38C82.1488 114.76 81.6421 113.887 81.4621 112.76L84.2421 112.34C84.3554 112.847 84.6054 113.243 84.9921 113.53C85.3854 113.817 85.8821 113.96 86.4821 113.96C86.9754 113.96 87.3554 113.867 87.6221 113.68C87.8888 113.487 88.0221 113.22 88.0221 112.88C88.0221 112.667 87.9688 112.497 87.8621 112.37C87.7554 112.237 87.5154 112.107 87.1421 111.98C86.7754 111.853 86.2021 111.687 85.4221 111.48C84.5421 111.253 83.8388 111 83.3121 110.72C82.7854 110.44 82.4054 110.107 82.1721 109.72C81.9388 109.327 81.8221 108.853 81.8221 108.3C81.8221 107.607 81.9988 107.007 82.3521 106.5C82.7054 105.987 83.2021 105.593 83.8421 105.32C84.4888 105.04 85.2488 104.9 86.1221 104.9C86.9688 104.9 87.7188 105.03 88.3721 105.29C89.0254 105.55 89.5521 105.92 89.9521 106.4C90.3588 106.88 90.6088 107.447 90.7021 108.1L87.9221 108.6C87.8754 108.2 87.7021 107.883 87.4021 107.65C87.1021 107.417 86.6954 107.28 86.1821 107.24C85.6821 107.207 85.2788 107.273 84.9721 107.44C84.6721 107.607 84.5221 107.847 84.5221 108.16C84.5221 108.347 84.5854 108.503 84.7121 108.63C84.8454 108.757 85.1154 108.887 85.5221 109.02C85.9354 109.153 86.5621 109.327 87.4021 109.54C88.2221 109.753 88.8788 110.003 89.3721 110.29C89.8721 110.57 90.2354 110.91 90.4621 111.31C90.6888 111.703 90.8021 112.18 90.8021 112.74C90.8021 113.847 90.4021 114.717 89.6021 115.35C88.8021 115.983 87.6954 116.3 86.2821 116.3ZM99.4796 116C98.7329 116.14 97.9996 116.2 97.2796 116.18C96.5663 116.167 95.9263 116.043 95.3596 115.81C94.7996 115.57 94.3729 115.187 94.0796 114.66C93.8129 114.167 93.6729 113.667 93.6596 113.16C93.6463 112.647 93.6396 112.067 93.6396 111.42V102.2H96.3596V111.26C96.3596 111.68 96.3629 112.06 96.3696 112.4C96.3829 112.733 96.4529 113 96.5796 113.2C96.8196 113.58 97.2029 113.787 97.7296 113.82C98.2563 113.853 98.8396 113.827 99.4796 113.74V116ZM91.7996 107.3V105.2H99.4796V107.3H91.7996ZM106.16 116.3C105.074 116.3 104.12 116.057 103.3 115.57C102.48 115.083 101.84 114.413 101.38 113.56C100.927 112.7 100.7 111.713 100.7 110.6C100.7 109.473 100.934 108.483 101.4 107.63C101.867 106.77 102.51 106.1 103.33 105.62C104.15 105.14 105.094 104.9 106.16 104.9C107.247 104.9 108.2 105.143 109.02 105.63C109.847 106.117 110.49 106.79 110.95 107.65C111.41 108.503 111.64 109.487 111.64 110.6C111.64 111.72 111.407 112.71 110.94 113.57C110.48 114.423 109.837 115.093 109.01 115.58C108.19 116.06 107.24 116.3 106.16 116.3ZM106.16 113.76C107.034 113.76 107.684 113.467 108.11 112.88C108.544 112.287 108.76 111.527 108.76 110.6C108.76 109.64 108.54 108.873 108.1 108.3C107.667 107.727 107.02 107.44 106.16 107.44C105.567 107.44 105.08 107.573 104.7 107.84C104.32 108.107 104.037 108.477 103.85 108.95C103.67 109.423 103.58 109.973 103.58 110.6C103.58 111.567 103.797 112.337 104.23 112.91C104.67 113.477 105.314 113.76 106.16 113.76ZM126.839 116V109.62C126.839 108.907 126.669 108.353 126.329 107.96C125.996 107.56 125.533 107.36 124.939 107.36C124.559 107.36 124.229 107.45 123.949 107.63C123.669 107.803 123.449 108.05 123.289 108.37C123.136 108.683 123.059 109.047 123.059 109.46L121.919 108.7C121.919 107.96 122.093 107.307 122.439 106.74C122.793 106.173 123.263 105.733 123.849 105.42C124.443 105.1 125.099 104.94 125.819 104.94C127.053 104.94 127.983 105.307 128.609 106.04C129.243 106.767 129.559 107.72 129.559 108.9V116H126.839ZM113.819 116V105.2H116.219V108.78H116.559V116H113.819ZM120.339 116V109.62C120.339 108.907 120.169 108.353 119.829 107.96C119.496 107.56 119.033 107.36 118.439 107.36C117.873 107.36 117.416 107.557 117.069 107.95C116.729 108.337 116.559 108.84 116.559 109.46L115.419 108.66C115.419 107.953 115.596 107.32 115.949 106.76C116.303 106.2 116.776 105.757 117.369 105.43C117.969 105.103 118.639 104.94 119.379 104.94C120.226 104.94 120.919 105.12 121.459 105.48C122.006 105.84 122.409 106.32 122.669 106.92C122.929 107.52 123.059 108.18 123.059 108.9V116H120.339ZM136.984 116.3C135.878 116.3 134.901 116.063 134.054 115.59C133.214 115.11 132.554 114.453 132.074 113.62C131.601 112.78 131.364 111.82 131.364 110.74C131.364 109.56 131.598 108.533 132.064 107.66C132.531 106.787 133.174 106.11 133.994 105.63C134.814 105.143 135.758 104.9 136.824 104.9C137.958 104.9 138.921 105.167 139.714 105.7C140.508 106.233 141.094 106.983 141.474 107.95C141.854 108.917 141.988 110.053 141.874 111.36H139.184V110.36C139.184 109.26 139.008 108.47 138.654 107.99C138.308 107.503 137.738 107.26 136.944 107.26C136.018 107.26 135.334 107.543 134.894 108.11C134.461 108.67 134.244 109.5 134.244 110.6C134.244 111.607 134.461 112.387 134.894 112.94C135.334 113.487 135.978 113.76 136.824 113.76C137.358 113.76 137.814 113.643 138.194 113.41C138.574 113.177 138.864 112.84 139.064 112.4L141.784 113.18C141.378 114.167 140.734 114.933 139.854 115.48C138.981 116.027 138.024 116.3 136.984 116.3ZM133.404 111.36V109.34H140.564V111.36H133.404ZM144.132 116V105.2H146.532V107.84L146.272 107.5C146.412 107.127 146.599 106.787 146.832 106.48C147.066 106.173 147.352 105.92 147.692 105.72C147.952 105.56 148.236 105.437 148.542 105.35C148.849 105.257 149.166 105.2 149.492 105.18C149.819 105.153 150.146 105.16 150.472 105.2V107.74C150.172 107.647 149.822 107.617 149.422 107.65C149.029 107.677 148.672 107.767 148.352 107.92C148.032 108.067 147.762 108.263 147.542 108.51C147.322 108.75 147.156 109.037 147.042 109.37C146.929 109.697 146.872 110.067 146.872 110.48V116H144.132ZM85.4882 144.3C84.0482 144.3 82.8049 143.987 81.7582 143.36C80.7182 142.733 79.9149 141.857 79.3482 140.73C78.7882 139.603 78.5082 138.293 78.5082 136.8C78.5082 135.307 78.7882 133.997 79.3482 132.87C79.9149 131.743 80.7182 130.867 81.7582 130.24C82.8049 129.613 84.0482 129.3 85.4882 129.3C87.1415 129.3 88.5282 129.71 89.6482 130.53C90.7749 131.35 91.5682 132.46 92.0282 133.86L89.2882 134.62C89.0215 133.747 88.5715 133.07 87.9382 132.59C87.3049 132.103 86.4882 131.86 85.4882 131.86C84.5749 131.86 83.8115 132.063 83.1982 132.47C82.5915 132.877 82.1349 133.45 81.8282 134.19C81.5215 134.93 81.3682 135.8 81.3682 136.8C81.3682 137.8 81.5215 138.67 81.8282 139.41C82.1349 140.15 82.5915 140.723 83.1982 141.13C83.8115 141.537 84.5749 141.74 85.4882 141.74C86.4882 141.74 87.3049 141.497 87.9382 141.01C88.5715 140.523 89.0215 139.847 89.2882 138.98L92.0282 139.74C91.5682 141.14 90.7749 142.25 89.6482 143.07C88.5282 143.89 87.1415 144.3 85.4882 144.3ZM101.59 144V138.9C101.59 138.653 101.577 138.34 101.55 137.96C101.523 137.573 101.44 137.187 101.3 136.8C101.16 136.413 100.93 136.09 100.61 135.83C100.297 135.57 99.8501 135.44 99.2701 135.44C99.0367 135.44 98.7867 135.477 98.5201 135.55C98.2534 135.623 98.0034 135.767 97.7701 135.98C97.5367 136.187 97.3434 136.493 97.1901 136.9C97.0434 137.307 96.9701 137.847 96.9701 138.52L95.4101 137.78C95.4101 136.927 95.5834 136.127 95.9301 135.38C96.2767 134.633 96.7967 134.03 97.4901 133.57C98.1901 133.11 99.0701 132.88 100.13 132.88C100.977 132.88 101.667 133.023 102.2 133.31C102.733 133.597 103.147 133.96 103.44 134.4C103.74 134.84 103.953 135.3 104.08 135.78C104.207 136.253 104.283 136.687 104.31 137.08C104.337 137.473 104.35 137.76 104.35 137.94V144H101.59ZM94.2101 144V129.6H96.6301V137H96.9701V144H94.2101ZM109.945 144.3C109.172 144.3 108.515 144.153 107.975 143.86C107.442 143.56 107.035 143.163 106.755 142.67C106.482 142.17 106.345 141.62 106.345 141.02C106.345 140.52 106.422 140.063 106.575 139.65C106.728 139.237 106.975 138.873 107.315 138.56C107.662 138.24 108.125 137.973 108.705 137.76C109.105 137.613 109.582 137.483 110.135 137.37C110.688 137.257 111.315 137.15 112.015 137.05C112.715 136.943 113.485 136.827 114.325 136.7L113.345 137.24C113.345 136.6 113.192 136.13 112.885 135.83C112.578 135.53 112.065 135.38 111.345 135.38C110.945 135.38 110.528 135.477 110.095 135.67C109.662 135.863 109.358 136.207 109.185 136.7L106.725 135.92C106.998 135.027 107.512 134.3 108.265 133.74C109.018 133.18 110.045 132.9 111.345 132.9C112.298 132.9 113.145 133.047 113.885 133.34C114.625 133.633 115.185 134.14 115.565 134.86C115.778 135.26 115.905 135.66 115.945 136.06C115.985 136.46 116.005 136.907 116.005 137.4V144H113.625V141.78L113.965 142.24C113.438 142.967 112.868 143.493 112.255 143.82C111.648 144.14 110.878 144.3 109.945 144.3ZM110.525 142.16C111.025 142.16 111.445 142.073 111.785 141.9C112.132 141.72 112.405 141.517 112.605 141.29C112.812 141.063 112.952 140.873 113.025 140.72C113.165 140.427 113.245 140.087 113.265 139.7C113.292 139.307 113.305 138.98 113.305 138.72L114.105 138.92C113.298 139.053 112.645 139.167 112.145 139.26C111.645 139.347 111.242 139.427 110.935 139.5C110.628 139.573 110.358 139.653 110.125 139.74C109.858 139.847 109.642 139.963 109.475 140.09C109.315 140.21 109.195 140.343 109.115 140.49C109.042 140.637 109.005 140.8 109.005 140.98C109.005 141.227 109.065 141.44 109.185 141.62C109.312 141.793 109.488 141.927 109.715 142.02C109.942 142.113 110.212 142.16 110.525 142.16ZM125.085 144C124.338 144.14 123.605 144.2 122.885 144.18C122.172 144.167 121.532 144.043 120.965 143.81C120.405 143.57 119.978 143.187 119.685 142.66C119.418 142.167 119.278 141.667 119.265 141.16C119.252 140.647 119.245 140.067 119.245 139.42V130.2H121.965V139.26C121.965 139.68 121.968 140.06 121.975 140.4C121.988 140.733 122.058 141 122.185 141.2C122.425 141.58 122.808 141.787 123.335 141.82C123.862 141.853 124.445 141.827 125.085 141.74V144ZM117.405 135.3V133.2H125.085V135.3H117.405Z" fill="#1F1E17"/>
<rect x="68" y="20" width="70" height="70" rx="7" fill="#C5CE38"/>
<path d="M84.25 55.5C81.9583 55.5 80.0833 53.5875 80.0833 51.25V40.625C80.0833 38.2875 81.9583 36.375 84.25 36.375H100.917C103.208 36.375 105.083 38.2875 105.083 40.625V51.25C105.083 53.5875 103.208 55.5 100.917 55.5H96.75V61.875L90.5 55.5H84.25ZM121.75 68.25C124.042 68.25 125.917 66.3375 125.917 64V53.375C125.917 51.0375 124.042 49.125 121.75 49.125H109.25V51.25C109.25 55.925 105.5 59.75 100.917 59.75V64C100.917 66.3375 102.792 68.25 105.083 68.25H109.25V74.625L115.5 68.25H121.75Z" fill="black"/>
</g>
<defs>
<filter id="filter0_d_63_112" x="0" y="0" width="202" height="209" filterUnits="userSpaceOnUse" color-interpolation-filters="sRGB">
<feFlood flood-opacity="0" result="BackgroundImageFix"/>
<feColorMatrix in="SourceAlpha" type="matrix" values="0 0 0 0 0 0 0 0 0 0 0 0 0 0 0 0 0 0 127 0" result="hardAlpha"/>
<feOffset dy="10"/>
<feGaussianBlur stdDeviation="15"/>
<feComposite in2="hardAlpha" operator="out"/>
<feColorMatrix type="matrix" values="0 0 0 0 0 0 0 0 0 0 0 0 0 0 0 0 0 0 0.07 0"/>
<feBlend mode="normal" in2="BackgroundImageFix" result="effect1_dropShadow_63_112"/>
<feBlend mode="normal" in="SourceGraphic" in2="effect1_dropShadow_63_112" result="shape"/>
</filter>
</defs>
</svg>
