<svg width="380" height="160" viewBox="0 0 380 160" fill="none" xmlns="http://www.w3.org/2000/svg">
<rect width="380" height="160" rx="10" fill="#FEFEFE"/>
<path d="M22.84 34V24.2H28.986V25.908H24.548V27.896H28.069V29.604H24.548V32.292H28.986V34H22.84ZM37.1356 29.576V34H35.4276V30.024C35.4276 29.7487 35.3599 29.499 35.2246 29.275C35.0893 29.0463 34.9073 28.8667 34.6786 28.736C34.4546 28.6007 34.2049 28.533 33.9296 28.533C33.6543 28.533 33.4023 28.6007 33.1736 28.736C32.9496 28.8667 32.7699 29.0463 32.6346 29.275C32.5039 29.499 32.4386 29.7487 32.4386 30.024V34H30.7306L30.7236 27H32.4316L32.4386 27.623C32.6766 27.371 32.9613 27.1727 33.2926 27.028C33.6239 26.8787 33.9809 26.804 34.3636 26.804C34.8723 26.804 35.3366 26.93 35.7566 27.182C36.1766 27.4293 36.5103 27.763 36.7576 28.183C37.0096 28.5983 37.1356 29.0627 37.1356 29.576ZM42.4822 28.708H41.1242V34H39.4162V28.708H38.3802V27H39.4162V24.802H41.1242V27H42.4822V28.708ZM46.8638 34.182C46.2198 34.182 45.6318 34.0163 45.0998 33.685C44.5724 33.3537 44.1501 32.908 43.8328 32.348C43.5201 31.788 43.3638 31.1697 43.3638 30.493C43.3638 29.9843 43.4548 29.5083 43.6368 29.065C43.8188 28.617 44.0684 28.225 44.3858 27.889C44.7078 27.5483 45.0811 27.2823 45.5058 27.091C45.9304 26.8997 46.3831 26.804 46.8638 26.804C47.4098 26.804 47.9091 26.9207 48.3618 27.154C48.8191 27.3827 49.2064 27.6977 49.5238 28.099C49.8411 28.5003 50.0721 28.9577 50.2168 29.471C50.3614 29.9843 50.3941 30.521 50.3148 31.081H45.1978C45.2631 31.3423 45.3704 31.578 45.5198 31.788C45.6691 31.9933 45.8581 32.159 46.0868 32.285C46.3154 32.4063 46.5744 32.4693 46.8638 32.474C47.1624 32.4787 47.4331 32.4087 47.6758 32.264C47.9231 32.1147 48.1284 31.914 48.2918 31.662L50.0348 32.068C49.7501 32.6887 49.3254 33.1973 48.7608 33.594C48.1961 33.986 47.5638 34.182 46.8638 34.182ZM45.1418 29.8H48.5858C48.5344 29.52 48.4248 29.268 48.2568 29.044C48.0934 28.8153 47.8904 28.6333 47.6478 28.498C47.4051 28.3627 47.1438 28.295 46.8638 28.295C46.5838 28.295 46.3248 28.3627 46.0868 28.498C45.8488 28.6287 45.6458 28.8083 45.4778 29.037C45.3144 29.261 45.2024 29.5153 45.1418 29.8ZM51.6607 34L51.6537 27H53.3617L53.3687 27.623C53.6067 27.371 53.8913 27.1727 54.2227 27.028C54.554 26.8787 54.911 26.804 55.2937 26.804C55.5503 26.804 55.807 26.8413 56.0637 26.916L55.3917 28.638C55.2143 28.568 55.037 28.533 54.8597 28.533C54.5843 28.533 54.3323 28.6007 54.1037 28.736C53.8797 28.8667 53.7 29.0463 53.5647 29.275C53.434 29.499 53.3687 29.7487 53.3687 30.024V34H51.6607ZM65.3397 34.182C64.677 34.182 64.054 34.0513 63.4707 33.79C62.8873 33.524 62.374 33.1577 61.9307 32.691C61.492 32.2243 61.1467 31.6853 60.8947 31.074C60.6473 30.458 60.5237 29.8 60.5237 29.1C60.5237 28.3953 60.6473 27.7373 60.8947 27.126C61.1467 26.51 61.492 25.971 61.9307 25.509C62.374 25.0423 62.8873 24.6783 63.4707 24.417C64.054 24.151 64.677 24.018 65.3397 24.018C66.133 24.018 66.8633 24.2023 67.5307 24.571C68.198 24.935 68.751 25.4227 69.1897 26.034L67.6637 26.853C67.3883 26.5123 67.0453 26.2393 66.6347 26.034C66.2287 25.8287 65.797 25.726 65.3397 25.726C64.9103 25.726 64.5067 25.8147 64.1287 25.992C63.7507 26.1647 63.4193 26.4073 63.1347 26.72C62.85 27.028 62.6283 27.3873 62.4697 27.798C62.311 28.204 62.2317 28.638 62.2317 29.1C62.2317 29.5667 62.311 30.003 62.4697 30.409C62.633 30.815 62.857 31.1743 63.1417 31.487C63.4263 31.795 63.7553 32.0377 64.1287 32.215C64.5067 32.3877 64.9103 32.474 65.3397 32.474C65.8063 32.474 66.2403 32.3713 66.6417 32.166C67.0477 31.956 67.3883 31.6807 67.6637 31.34L69.1897 32.166C68.751 32.7727 68.198 33.2603 67.5307 33.629C66.8633 33.9977 66.133 34.182 65.3397 34.182ZM75.6196 27H77.3276V34H75.6196L75.5426 33.132C75.3512 33.4447 75.0969 33.699 74.7796 33.895C74.4669 34.0863 74.0959 34.182 73.6666 34.182C73.1486 34.182 72.6632 34.084 72.2106 33.888C71.7579 33.692 71.3589 33.4213 71.0136 33.076C70.6729 32.7307 70.4046 32.3317 70.2086 31.879C70.0172 31.4263 69.9216 30.941 69.9216 30.423C69.9216 29.9237 70.0126 29.4547 70.1946 29.016C70.3812 28.5773 70.6402 28.1923 70.9716 27.861C71.3029 27.5297 71.6856 27.2707 72.1196 27.084C72.5536 26.8973 73.0202 26.804 73.5196 26.804C73.9816 26.804 74.3946 26.9067 74.7586 27.112C75.1272 27.3173 75.4399 27.5787 75.6966 27.896L75.6196 27ZM73.6246 32.537C73.9886 32.537 74.3106 32.446 74.5906 32.264C74.8706 32.082 75.0899 31.837 75.2486 31.529C75.4072 31.2163 75.4866 30.8733 75.4866 30.5C75.4866 30.122 75.4072 29.779 75.2486 29.471C75.0899 29.1583 74.8682 28.911 74.5836 28.729C74.3036 28.547 73.9839 28.456 73.6246 28.456C73.2652 28.456 72.9362 28.5493 72.6376 28.736C72.3436 28.918 72.1079 29.163 71.9306 29.471C71.7579 29.779 71.6716 30.122 71.6716 30.5C71.6716 30.878 71.7602 31.221 71.9376 31.529C72.1149 31.837 72.3506 32.082 72.6446 32.264C72.9432 32.446 73.2699 32.537 73.6246 32.537ZM78.9294 34L78.9224 27H80.6304L80.6374 27.623C80.8754 27.371 81.1601 27.1727 81.4914 27.028C81.8228 26.8787 82.1798 26.804 82.5624 26.804C82.8191 26.804 83.0758 26.8413 83.3324 26.916L82.6604 28.638C82.4831 28.568 82.3058 28.533 82.1284 28.533C81.8531 28.533 81.6011 28.6007 81.3724 28.736C81.1484 28.8667 80.9688 29.0463 80.8334 29.275C80.7028 29.499 80.6374 29.7487 80.6374 30.024V34H78.9294ZM89.2816 23.5H90.9896V34H89.2816V33.125C89.0576 33.4377 88.7753 33.692 88.4346 33.888C88.0939 34.084 87.6996 34.182 87.2516 34.182C86.7429 34.182 86.2669 34.0863 85.8236 33.895C85.3803 33.7037 84.9883 33.44 84.6476 33.104C84.3116 32.7633 84.0479 32.3713 83.8566 31.928C83.6653 31.4847 83.5696 31.0087 83.5696 30.5C83.5696 29.9913 83.6653 29.5153 83.8566 29.072C84.0479 28.6287 84.3116 28.239 84.6476 27.903C84.9883 27.5623 85.3803 27.2963 85.8236 27.105C86.2669 26.9137 86.7429 26.818 87.2516 26.818C87.6996 26.818 88.0939 26.916 88.4346 27.112C88.7753 27.3033 89.0576 27.5577 89.2816 27.875V23.5ZM87.2726 32.537C87.6366 32.537 87.9586 32.446 88.2386 32.264C88.5186 32.082 88.7379 31.837 88.8966 31.529C89.0553 31.2163 89.1346 30.8733 89.1346 30.5C89.1346 30.122 89.0553 29.779 88.8966 29.471C88.7379 29.1583 88.5163 28.911 88.2316 28.729C87.9516 28.547 87.6319 28.456 87.2726 28.456C86.9133 28.456 86.5843 28.5493 86.2856 28.736C85.9916 28.918 85.7559 29.163 85.5786 29.471C85.4059 29.779 85.3196 30.122 85.3196 30.5C85.3196 30.878 85.4083 31.221 85.5856 31.529C85.7629 31.837 85.9986 32.082 86.2926 32.264C86.5913 32.446 86.9179 32.537 87.2726 32.537ZM96.4345 34V24.2H99.6825C100.359 24.2 100.992 24.3283 101.58 24.585C102.172 24.837 102.693 25.1893 103.141 25.642C103.593 26.09 103.946 26.6103 104.198 27.203C104.454 27.791 104.583 28.4233 104.583 29.1C104.583 29.7767 104.454 30.4113 104.198 31.004C103.946 31.592 103.593 32.1123 103.141 32.565C102.693 33.013 102.172 33.3653 101.58 33.622C100.992 33.874 100.359 34 99.6825 34H96.4345ZM98.1425 32.292H99.6825C100.117 32.292 100.525 32.2103 100.908 32.047C101.295 31.879 101.636 31.6503 101.93 31.361C102.224 31.067 102.455 30.7287 102.623 30.346C102.791 29.9587 102.875 29.5433 102.875 29.1C102.875 28.6567 102.791 28.2437 102.623 27.861C102.455 27.4783 102.224 27.14 101.93 26.846C101.636 26.552 101.297 26.3233 100.915 26.16C100.532 25.992 100.121 25.908 99.6825 25.908H98.1425V32.292ZM108.902 34.182C108.258 34.182 107.67 34.0163 107.138 33.685C106.611 33.3537 106.188 32.908 105.871 32.348C105.558 31.788 105.402 31.1697 105.402 30.493C105.402 29.9843 105.493 29.5083 105.675 29.065C105.857 28.617 106.107 28.225 106.424 27.889C106.746 27.5483 107.119 27.2823 107.544 27.091C107.969 26.8997 108.421 26.804 108.902 26.804C109.448 26.804 109.947 26.9207 110.4 27.154C110.857 27.3827 111.245 27.6977 111.562 28.099C111.879 28.5003 112.11 28.9577 112.255 29.471C112.4 29.9843 112.432 30.521 112.353 31.081H107.236C107.301 31.3423 107.409 31.578 107.558 31.788C107.707 31.9933 107.896 32.159 108.125 32.285C108.354 32.4063 108.613 32.4693 108.902 32.474C109.201 32.4787 109.471 32.4087 109.714 32.264C109.961 32.1147 110.167 31.914 110.33 31.662L112.073 32.068C111.788 32.6887 111.364 33.1973 110.799 33.594C110.234 33.986 109.602 34.182 108.902 34.182ZM107.18 29.8H110.624C110.573 29.52 110.463 29.268 110.295 29.044C110.132 28.8153 109.929 28.6333 109.686 28.498C109.443 28.3627 109.182 28.295 108.902 28.295C108.622 28.295 108.363 28.3627 108.125 28.498C107.887 28.6287 107.684 28.8083 107.516 29.037C107.353 29.261 107.241 29.5153 107.18 29.8ZM117.444 28.708H116.086V34H114.378V28.708H113.342V27H114.378V24.802H116.086V27H117.444V28.708ZM124.023 27H125.731V34H124.023L123.946 33.132C123.755 33.4447 123.501 33.699 123.183 33.895C122.871 34.0863 122.5 34.182 122.07 34.182C121.552 34.182 121.067 34.084 120.614 33.888C120.162 33.692 119.763 33.4213 119.417 33.076C119.077 32.7307 118.808 32.3317 118.612 31.879C118.421 31.4263 118.325 30.941 118.325 30.423C118.325 29.9237 118.416 29.4547 118.598 29.016C118.785 28.5773 119.044 28.1923 119.375 27.861C119.707 27.5297 120.089 27.2707 120.523 27.084C120.957 26.8973 121.424 26.804 121.923 26.804C122.385 26.804 122.798 26.9067 123.162 27.112C123.531 27.3173 123.844 27.5787 124.1 27.896L124.023 27ZM122.028 32.537C122.392 32.537 122.714 32.446 122.994 32.264C123.274 32.082 123.494 31.837 123.652 31.529C123.811 31.2163 123.89 30.8733 123.89 30.5C123.89 30.122 123.811 29.779 123.652 29.471C123.494 29.1583 123.272 28.911 122.987 28.729C122.707 28.547 122.388 28.456 122.028 28.456C121.669 28.456 121.34 28.5493 121.041 28.736C120.747 28.918 120.512 29.163 120.334 29.471C120.162 29.779 120.075 30.122 120.075 30.5C120.075 30.878 120.164 31.221 120.341 31.529C120.519 31.837 120.754 32.082 121.048 32.264C121.347 32.446 121.674 32.537 122.028 32.537ZM127.326 27H129.034V34H127.326V27ZM128.194 26.097C127.942 26.097 127.73 26.0153 127.557 25.852C127.385 25.684 127.298 25.474 127.298 25.222C127.298 24.9747 127.385 24.767 127.557 24.599C127.73 24.431 127.94 24.347 128.187 24.347C128.435 24.347 128.642 24.431 128.81 24.599C128.983 24.767 129.069 24.9747 129.069 25.222C129.069 25.474 128.985 25.684 128.817 25.852C128.649 26.0153 128.442 26.097 128.194 26.097ZM130.944 34V23.5H132.652V34H130.944ZM136.6 34.126C136.236 34.1027 135.884 34.0303 135.543 33.909C135.207 33.783 134.908 33.6127 134.647 33.398C134.386 33.1833 134.185 32.9267 134.045 32.628L135.487 32.012C135.543 32.1053 135.634 32.2057 135.76 32.313C135.886 32.4157 136.035 32.502 136.208 32.572C136.385 32.642 136.579 32.677 136.789 32.677C136.966 32.677 137.134 32.6537 137.293 32.607C137.456 32.5557 137.587 32.4787 137.685 32.376C137.788 32.2733 137.839 32.1403 137.839 31.977C137.839 31.8043 137.778 31.6713 137.657 31.578C137.54 31.48 137.391 31.4077 137.209 31.361C137.032 31.3097 136.859 31.263 136.691 31.221C136.248 31.1323 135.835 30.9947 135.452 30.808C135.074 30.6213 134.768 30.381 134.535 30.087C134.306 29.7883 134.192 29.429 134.192 29.009C134.192 28.547 134.313 28.148 134.556 27.812C134.803 27.476 135.123 27.217 135.515 27.035C135.912 26.853 136.339 26.762 136.796 26.762C137.351 26.762 137.86 26.8787 138.322 27.112C138.789 27.3407 139.157 27.665 139.428 28.085L138.077 28.883C138.012 28.771 137.921 28.6683 137.804 28.575C137.687 28.477 137.554 28.3977 137.405 28.337C137.256 28.2717 137.099 28.2343 136.936 28.225C136.726 28.2157 136.535 28.2343 136.362 28.281C136.189 28.3277 136.049 28.407 135.942 28.519C135.839 28.631 135.788 28.7803 135.788 28.967C135.788 29.1443 135.858 29.2773 135.998 29.366C136.138 29.45 136.306 29.5153 136.502 29.562C136.703 29.6087 136.894 29.66 137.076 29.716C137.487 29.8513 137.872 30.017 138.231 30.213C138.595 30.409 138.887 30.6493 139.106 30.934C139.325 31.2187 139.43 31.5593 139.421 31.956C139.421 32.4087 139.286 32.8053 139.015 33.146C138.744 33.482 138.394 33.7387 137.965 33.916C137.54 34.0933 137.085 34.1633 136.6 34.126Z" fill="black"/>
<rect x="23" y="51" width="334" height="89" rx="8" fill="#F4F4F4"/>
<path d="M61.7 86V89.66H55.28V107H51.62V89.66H45.2V86H61.7ZM69.0113 107.39C67.6313 107.39 66.3713 107.035 65.2313 106.325C64.1013 105.615 63.1963 104.665 62.5163 103.475C61.8463 102.275 61.5113 100.95 61.5113 99.5C61.5113 98.4 61.7063 97.375 62.0963 96.425C62.4863 95.465 63.0213 94.625 63.7013 93.905C64.3913 93.175 65.1913 92.605 66.1013 92.195C67.0113 91.785 67.9813 91.58 69.0113 91.58C70.3913 91.58 71.6463 91.935 72.7763 92.645C73.9163 93.355 74.8213 94.31 75.4913 95.51C76.1713 96.71 76.5113 98.04 76.5113 99.5C76.5113 100.59 76.3163 101.61 75.9263 102.56C75.5363 103.51 74.9963 104.35 74.3063 105.08C73.6263 105.8 72.8313 106.365 71.9213 106.775C71.0213 107.185 70.0513 107.39 69.0113 107.39ZM69.0113 103.73C69.7413 103.73 70.3963 103.535 70.9763 103.145C71.5563 102.755 72.0113 102.24 72.3413 101.6C72.6813 100.96 72.8513 100.26 72.8513 99.5C72.8513 98.72 72.6763 98.01 72.3263 97.37C71.9863 96.72 71.5213 96.205 70.9313 95.825C70.3513 95.435 69.7113 95.24 69.0113 95.24C68.2913 95.24 67.6413 95.435 67.0613 95.825C66.4813 96.215 66.0213 96.735 65.6813 97.385C65.3413 98.035 65.1713 98.74 65.1713 99.5C65.1713 100.29 65.3463 101.005 65.6963 101.645C66.0463 102.285 66.5113 102.795 67.0913 103.175C67.6813 103.545 68.3213 103.73 69.0113 103.73ZM86.8869 95.66H83.9769V107H80.3169V95.66H78.0969V92H80.3169V87.29H83.9769V92H86.8869V95.66ZM100.557 92H104.217V107H100.557L100.392 105.14C99.9823 105.81 99.4373 106.355 98.7573 106.775C98.0873 107.185 97.2923 107.39 96.3723 107.39C95.2623 107.39 94.2223 107.18 93.2523 106.76C92.2823 106.34 91.4273 105.76 90.6873 105.02C89.9573 104.28 89.3823 103.425 88.9623 102.455C88.5523 101.485 88.3473 100.445 88.3473 99.335C88.3473 98.265 88.5423 97.26 88.9323 96.32C89.3323 95.38 89.8873 94.555 90.5973 93.845C91.3073 93.135 92.1273 92.58 93.0573 92.18C93.9873 91.78 94.9873 91.58 96.0573 91.58C97.0473 91.58 97.9323 91.8 98.7123 92.24C99.5023 92.68 100.172 93.24 100.722 93.92L100.557 92ZM96.2823 103.865C97.0623 103.865 97.7523 103.67 98.3523 103.28C98.9523 102.89 99.4223 102.365 99.7623 101.705C100.102 101.035 100.272 100.3 100.272 99.5C100.272 98.69 100.102 97.955 99.7623 97.295C99.4223 96.625 98.9473 96.095 98.3373 95.705C97.7373 95.315 97.0523 95.12 96.2823 95.12C95.5123 95.12 94.8073 95.32 94.1673 95.72C93.5373 96.11 93.0323 96.635 92.6523 97.295C92.2823 97.955 92.0973 98.69 92.0973 99.5C92.0973 100.31 92.2873 101.045 92.6673 101.705C93.0473 102.365 93.5523 102.89 94.1823 103.28C94.8223 103.67 95.5223 103.865 96.2823 103.865ZM107.294 107V84.5H110.954V107H107.294ZM133.077 92H136.737V107H133.077L132.912 105.14C132.502 105.81 131.957 106.355 131.277 106.775C130.607 107.185 129.812 107.39 128.892 107.39C127.782 107.39 126.742 107.18 125.772 106.76C124.802 106.34 123.947 105.76 123.207 105.02C122.477 104.28 121.902 103.425 121.482 102.455C121.072 101.485 120.867 100.445 120.867 99.335C120.867 98.265 121.062 97.26 121.452 96.32C121.852 95.38 122.407 94.555 123.117 93.845C123.827 93.135 124.647 92.58 125.577 92.18C126.507 91.78 127.507 91.58 128.577 91.58C129.567 91.58 130.452 91.8 131.232 92.24C132.022 92.68 132.692 93.24 133.242 93.92L133.077 92ZM128.802 103.865C129.582 103.865 130.272 103.67 130.872 103.28C131.472 102.89 131.942 102.365 132.282 101.705C132.622 101.035 132.792 100.3 132.792 99.5C132.792 98.69 132.622 97.955 132.282 97.295C131.942 96.625 131.467 96.095 130.857 95.705C130.257 95.315 129.572 95.12 128.802 95.12C128.032 95.12 127.327 95.32 126.687 95.72C126.057 96.11 125.552 96.635 125.172 97.295C124.802 97.955 124.617 98.69 124.617 99.5C124.617 100.31 124.807 101.045 125.187 101.705C125.567 102.365 126.072 102.89 126.702 103.28C127.342 103.67 128.042 103.865 128.802 103.865ZM139.726 107V92H143.386V93.335C143.896 92.795 144.506 92.37 145.216 92.06C145.926 91.74 146.691 91.58 147.511 91.58C148.551 91.58 149.506 91.825 150.376 92.315C151.256 92.805 151.956 93.46 152.476 94.28C153.006 93.46 153.706 92.805 154.576 92.315C155.446 91.825 156.401 91.58 157.441 91.58C158.541 91.58 159.536 91.85 160.426 92.39C161.326 92.92 162.041 93.635 162.571 94.535C163.111 95.425 163.381 96.42 163.381 97.52V107H159.721V98.495C159.721 97.915 159.576 97.385 159.286 96.905C159.006 96.415 158.626 96.025 158.146 95.735C157.676 95.435 157.146 95.285 156.556 95.285C155.966 95.285 155.431 95.43 154.951 95.72C154.481 96 154.101 96.38 153.811 96.86C153.521 97.34 153.376 97.885 153.376 98.495V107H149.716V98.495C149.716 97.885 149.576 97.34 149.296 96.86C149.016 96.38 148.636 96 148.156 95.72C147.676 95.43 147.141 95.285 146.551 95.285C145.971 95.285 145.441 95.435 144.961 95.735C144.481 96.025 144.096 96.415 143.806 96.905C143.526 97.385 143.386 97.915 143.386 98.495V107H139.726ZM172.693 107.39C171.313 107.39 170.053 107.035 168.913 106.325C167.783 105.615 166.878 104.665 166.198 103.475C165.528 102.275 165.193 100.95 165.193 99.5C165.193 98.4 165.388 97.375 165.778 96.425C166.168 95.465 166.703 94.625 167.383 93.905C168.073 93.175 168.873 92.605 169.783 92.195C170.693 91.785 171.663 91.58 172.693 91.58C174.073 91.58 175.328 91.935 176.458 92.645C177.598 93.355 178.503 94.31 179.173 95.51C179.853 96.71 180.193 98.04 180.193 99.5C180.193 100.59 179.998 101.61 179.608 102.56C179.218 103.51 178.678 104.35 177.988 105.08C177.308 105.8 176.513 106.365 175.603 106.775C174.703 107.185 173.733 107.39 172.693 107.39ZM172.693 103.73C173.423 103.73 174.078 103.535 174.658 103.145C175.238 102.755 175.693 102.24 176.023 101.6C176.363 100.96 176.533 100.26 176.533 99.5C176.533 98.72 176.358 98.01 176.008 97.37C175.668 96.72 175.203 96.205 174.613 95.825C174.033 95.435 173.393 95.24 172.693 95.24C171.973 95.24 171.323 95.435 170.743 95.825C170.163 96.215 169.703 96.735 169.363 97.385C169.023 98.035 168.853 98.74 168.853 99.5C168.853 100.29 169.028 101.005 169.378 101.645C169.728 102.285 170.193 102.795 170.773 103.175C171.363 103.545 172.003 103.73 172.693 103.73ZM181.606 101.45V92H185.266V100.49C185.266 101.08 185.411 101.62 185.701 102.11C185.991 102.59 186.376 102.975 186.856 103.265C187.346 103.545 187.881 103.685 188.461 103.685C189.061 103.685 189.601 103.545 190.081 103.265C190.561 102.975 190.946 102.59 191.236 102.11C191.526 101.62 191.671 101.08 191.671 100.49V92H195.331L195.346 107H191.686L191.671 105.635C191.151 106.175 190.536 106.605 189.826 106.925C189.116 107.235 188.356 107.39 187.546 107.39C186.456 107.39 185.461 107.125 184.561 106.595C183.661 106.055 182.941 105.34 182.401 104.45C181.871 103.55 181.606 102.55 181.606 101.45ZM212.089 97.52V107H208.429V98.48C208.429 97.89 208.284 97.355 207.994 96.875C207.704 96.385 207.314 96 206.824 95.72C206.344 95.43 205.809 95.285 205.219 95.285C204.629 95.285 204.089 95.43 203.599 95.72C203.119 96 202.734 96.385 202.444 96.875C202.164 97.355 202.024 97.89 202.024 98.48V107H198.364L198.349 92H202.009L202.024 93.335C202.534 92.795 203.144 92.37 203.854 92.06C204.564 91.74 205.329 91.58 206.149 91.58C207.239 91.58 208.234 91.85 209.134 92.39C210.034 92.92 210.749 93.635 211.279 94.535C211.819 95.425 212.089 96.42 212.089 97.52ZM223.117 95.66H220.207V107H216.547V95.66H214.327V92H216.547V87.29H220.207V92H223.117V95.66ZM234.311 95.765C233.791 95.765 233.346 95.585 232.976 95.225C232.616 94.855 232.436 94.405 232.436 93.875C232.436 93.365 232.616 92.925 232.976 92.555C233.346 92.185 233.791 92 234.311 92C234.831 92 235.276 92.185 235.646 92.555C236.016 92.925 236.201 93.365 236.201 93.875C236.201 94.405 236.016 94.855 235.646 95.225C235.276 95.585 234.831 95.765 234.311 95.765ZM234.311 107.39C233.791 107.39 233.346 107.21 232.976 106.85C232.616 106.48 232.436 106.03 232.436 105.5C232.436 104.99 232.616 104.55 232.976 104.18C233.346 103.81 233.791 103.625 234.311 103.625C234.831 103.625 235.276 103.81 235.646 104.18C236.016 104.55 236.201 104.99 236.201 105.5C236.201 106.03 236.016 106.48 235.646 106.85C235.276 107.21 234.831 107.39 234.311 107.39ZM249.051 107V89.66H246.411L247.401 86H252.711V107H249.051ZM263.363 107.39C262.013 107.39 260.793 107.065 259.703 106.415C258.613 105.755 257.748 104.88 257.108 103.79C256.478 102.7 256.163 101.505 256.163 100.205H259.823C259.823 100.855 259.983 101.45 260.303 101.99C260.623 102.52 261.048 102.945 261.578 103.265C262.118 103.575 262.713 103.73 263.363 103.73C264.013 103.73 264.603 103.575 265.133 103.265C265.663 102.945 266.088 102.52 266.408 101.99C266.728 101.45 266.888 100.855 266.888 100.205C266.888 99.555 266.748 98.96 266.468 98.42C266.198 97.87 265.753 97.435 265.133 97.115C264.523 96.785 263.713 96.62 262.703 96.62H257.303L259.523 86H269.843V89.66H262.493L261.818 92.96L263.303 92.975C264.723 93.025 265.978 93.37 267.068 94.01C268.158 94.65 269.008 95.51 269.618 96.59C270.238 97.66 270.548 98.865 270.548 100.205C270.548 101.185 270.363 102.11 269.993 102.98C269.623 103.85 269.108 104.615 268.448 105.275C267.788 105.935 267.023 106.455 266.153 106.835C265.293 107.205 264.363 107.39 263.363 107.39ZM280.507 107.39C279.287 107.39 278.177 107.11 277.177 106.55C276.177 105.98 275.312 105.195 274.582 104.195C273.862 103.195 273.307 102.04 272.917 100.73C272.527 99.41 272.332 98 272.332 96.5C272.332 95 272.527 93.595 272.917 92.285C273.307 90.965 273.862 89.805 274.582 88.805C275.312 87.805 276.177 87.025 277.177 86.465C278.177 85.895 279.287 85.61 280.507 85.61C281.727 85.61 282.837 85.895 283.837 86.465C284.837 87.025 285.692 87.805 286.402 88.805C287.122 89.805 287.677 90.965 288.067 92.285C288.467 93.595 288.667 95 288.667 96.5C288.667 98 288.467 99.41 288.067 100.73C287.677 102.04 287.122 103.195 286.402 104.195C285.692 105.195 284.837 105.98 283.837 106.55C282.837 107.11 281.727 107.39 280.507 107.39ZM280.507 103.73C281.577 103.73 282.462 103.39 283.162 102.71C283.862 102.03 284.382 101.14 284.722 100.04C285.062 98.94 285.232 97.76 285.232 96.5C285.232 95.17 285.052 93.96 284.692 92.87C284.332 91.77 283.802 90.895 283.102 90.245C282.402 89.595 281.537 89.27 280.507 89.27C279.697 89.27 278.992 89.47 278.392 89.87C277.802 90.26 277.312 90.795 276.922 91.475C276.532 92.155 276.242 92.93 276.052 93.8C275.862 94.66 275.767 95.56 275.767 96.5C275.767 97.75 275.937 98.93 276.277 100.04C276.627 101.14 277.152 102.03 277.852 102.71C278.562 103.39 279.447 103.73 280.507 103.73ZM297.968 107.39C296.748 107.39 295.638 107.11 294.638 106.55C293.638 105.98 292.773 105.195 292.043 104.195C291.323 103.195 290.768 102.04 290.378 100.73C289.988 99.41 289.793 98 289.793 96.5C289.793 95 289.988 93.595 290.378 92.285C290.768 90.965 291.323 89.805 292.043 88.805C292.773 87.805 293.638 87.025 294.638 86.465C295.638 85.895 296.748 85.61 297.968 85.61C299.188 85.61 300.298 85.895 301.298 86.465C302.298 87.025 303.153 87.805 303.863 88.805C304.583 89.805 305.138 90.965 305.528 92.285C305.928 93.595 306.128 95 306.128 96.5C306.128 98 305.928 99.41 305.528 100.73C305.138 102.04 304.583 103.195 303.863 104.195C303.153 105.195 302.298 105.98 301.298 106.55C300.298 107.11 299.188 107.39 297.968 107.39ZM297.968 103.73C299.038 103.73 299.923 103.39 300.623 102.71C301.323 102.03 301.843 101.14 302.183 100.04C302.523 98.94 302.693 97.76 302.693 96.5C302.693 95.17 302.513 93.96 302.153 92.87C301.793 91.77 301.263 90.895 300.563 90.245C299.863 89.595 298.998 89.27 297.968 89.27C297.158 89.27 296.453 89.47 295.853 89.87C295.263 90.26 294.773 90.795 294.383 91.475C293.993 92.155 293.703 92.93 293.513 93.8C293.323 94.66 293.228 95.56 293.228 96.5C293.228 97.75 293.398 98.93 293.738 100.04C294.088 101.14 294.613 102.03 295.313 102.71C296.023 103.39 296.908 103.73 297.968 103.73ZM317.977 86L311.887 108.68H308.227L314.317 86H317.977ZM320.386 103.055V99.395H335.386V103.055H320.386ZM320.386 96.605V92.945H335.386V96.605H320.386Z" fill="#242424"/>
<g clip-path="url(#clip0_25_247)">
<path d="M208.031 24.413C207.996 26.7717 210.436 28.0878 212.274 28.8705C214.162 29.6733 214.796 30.1883 214.789 30.9064C214.774 32.0052 213.282 32.4902 211.886 32.5091C209.45 32.542 208.034 31.9343 206.908 31.4747L206.031 35.063C207.16 35.5179 209.252 35.9146 211.421 35.932C216.513 35.932 219.844 33.7355 219.862 30.33C219.882 26.0079 213.021 25.7687 213.068 23.8368C213.084 23.251 213.724 22.6259 215.126 22.467C215.819 22.3867 217.734 22.3252 219.906 23.199L220.758 19.7273C219.59 19.3558 218.089 19 216.221 19C211.429 19 208.058 21.2264 208.031 24.413ZM228.946 19.299C228.017 19.299 227.233 19.773 226.883 20.5003L219.61 35.677H224.698L225.711 33.2317H231.928L232.515 35.677H237L233.087 19.299H228.946ZM229.658 23.7233L231.127 29.8735H227.105L229.658 23.7233ZM201.862 19.2992L197.851 35.6768H202.699L206.708 19.2988L201.862 19.2992ZM194.689 19.2992L189.642 30.4465L187.601 20.9681C187.361 19.91 186.416 19.299 185.365 19.299H177.116L177 19.7746C178.694 20.0958 180.618 20.6138 181.784 21.168C182.497 21.5066 182.7 21.8025 182.935 22.6071L186.801 35.677H191.925L199.78 19.299L194.689 19.2992Z" fill="url(#paint0_linear_25_247)"/>
</g>
<g clip-path="url(#clip1_25_247)">
<path d="M279.545 40.8509V38.8653C279.545 38.104 279.112 37.6077 278.371 37.6077C278.001 37.6077 277.6 37.7401 277.322 38.1703C277.106 37.8063 276.797 37.6077 276.334 37.6077C276.025 37.6077 275.717 37.7069 275.47 38.071V37.6739H274.821V40.8509H275.47V39.0969C275.47 38.5344 275.747 38.2695 276.18 38.2695C276.612 38.2695 276.828 38.5674 276.828 39.0969V40.8509H277.476V39.0969C277.476 38.5344 277.785 38.2695 278.186 38.2695C278.618 38.2695 278.834 38.5674 278.834 39.0969V40.8509H279.545ZM289.145 37.6739H288.096V36.7142H287.447V37.6739H286.861V38.3026H287.447V39.7588C287.447 40.487 287.725 40.9171 288.466 40.9171C288.744 40.9171 289.053 40.8179 289.269 40.6855L289.083 40.0897C288.898 40.2221 288.682 40.2553 288.528 40.2553C288.219 40.2553 288.096 40.0567 288.096 39.7257V38.3026H289.145V37.6739ZM294.64 37.6076C294.27 37.6076 294.023 37.8063 293.869 38.071V37.6739H293.22V40.8509H293.869V39.0639C293.869 38.5344 294.085 38.2365 294.486 38.2365C294.609 38.2365 294.764 38.2697 294.887 38.3027L295.072 37.6409C294.949 37.6077 294.764 37.6077 294.64 37.6077M286.336 37.9388C286.027 37.7071 285.595 37.6079 285.132 37.6079C284.391 37.6079 283.897 38.005 283.897 38.6338C283.897 39.1634 284.268 39.4611 284.916 39.5604L285.225 39.5936C285.564 39.6596 285.75 39.759 285.75 39.9245C285.75 40.1561 285.503 40.3216 285.07 40.3216C284.638 40.3216 284.299 40.1561 284.082 39.9907L283.774 40.5201C284.113 40.7849 284.576 40.9172 285.039 40.9172C285.904 40.9172 286.398 40.4871 286.398 39.8913C286.398 39.3287 285.996 39.0308 285.379 38.9317L285.07 38.8985C284.792 38.8653 284.576 38.7993 284.576 38.6007C284.576 38.369 284.792 38.2367 285.132 38.2367C285.503 38.2367 285.873 38.4021 286.058 38.5014L286.336 37.9388ZM303.562 37.6079C303.191 37.6079 302.944 37.8064 302.79 38.0711V37.6741H302.142V40.851H302.79V39.064C302.79 38.5346 303.006 38.2367 303.407 38.2367C303.531 38.2367 303.685 38.2698 303.809 38.3029L303.994 37.641C303.871 37.6079 303.685 37.6079 303.562 37.6079ZM295.289 39.2626C295.289 40.2223 295.906 40.9172 296.863 40.9172C297.295 40.9172 297.604 40.818 297.912 40.5533L297.604 39.9907C297.357 40.1892 297.11 40.2884 296.832 40.2884C296.307 40.2884 295.937 39.8913 295.937 39.2626C295.937 38.6669 296.307 38.2697 296.832 38.2367C297.11 38.2367 297.357 38.3359 297.604 38.5346L297.912 37.972C297.604 37.7071 297.295 37.6079 296.863 37.6079C295.906 37.6079 295.289 38.3029 295.289 39.2626ZM301.277 39.2626V37.6741H300.629V38.0711C300.413 37.7734 300.104 37.6079 299.703 37.6079C298.87 37.6079 298.221 38.3029 298.221 39.2626C298.221 40.2223 298.87 40.9172 299.703 40.9172C300.135 40.9172 300.444 40.7519 300.629 40.454V40.851H301.277V39.2626ZM298.9 39.2626C298.9 38.6999 299.24 38.2367 299.796 38.2367C300.32 38.2367 300.691 38.6669 300.691 39.2626C300.691 39.8252 300.32 40.2884 299.796 40.2884C299.24 40.2553 298.9 39.8252 298.9 39.2626ZM291.152 37.6079C290.288 37.6079 289.67 38.2697 289.67 39.2626C289.67 40.2554 290.287 40.9172 291.183 40.9172C291.615 40.9172 292.047 40.7849 292.387 40.4871L292.078 39.9907C291.831 40.1892 291.522 40.3216 291.214 40.3216C290.812 40.3216 290.411 40.1231 290.318 39.5603H292.51V39.2957C292.541 38.2697 291.986 37.6079 291.152 37.6079ZM291.152 38.2035C291.553 38.2035 291.831 38.4684 291.893 38.9648H290.349C290.411 38.5346 290.689 38.2035 291.152 38.2035ZM307.235 39.2626V36.4165H306.587V38.0711C306.371 37.7734 306.062 37.6079 305.661 37.6079C304.827 37.6079 304.179 38.3029 304.179 39.2626C304.179 40.2223 304.827 40.9172 305.661 40.9172C306.093 40.9172 306.402 40.7519 306.587 40.454V40.851H307.235V39.2626ZM304.858 39.2626C304.858 38.6999 305.198 38.2367 305.754 38.2367C306.278 38.2367 306.649 38.6669 306.649 39.2626C306.649 39.8252 306.278 40.2884 305.754 40.2884C305.198 40.2553 304.858 39.8252 304.858 39.2626ZM283.187 39.2626V37.6741H282.539V38.0711C282.323 37.7734 282.014 37.6079 281.613 37.6079C280.779 37.6079 280.131 38.3029 280.131 39.2626C280.131 40.2223 280.779 40.9172 281.613 40.9172C282.045 40.9172 282.354 40.7519 282.539 40.454V40.851H283.187V39.2626ZM280.779 39.2626C280.779 38.6999 281.119 38.2367 281.674 38.2367C282.199 38.2367 282.57 38.6669 282.57 39.2626C282.57 39.8252 282.199 40.2884 281.674 40.2884C281.119 40.2553 280.779 39.8252 280.779 39.2626Z" fill="black"/>
<path d="M286.12 13.5482H295.844V32.2795H286.12V13.5482Z" fill="#FF5F00"/>
<path d="M286.738 22.9139C286.738 19.1081 288.404 15.7325 290.967 13.5482C289.084 11.9597 286.707 11 284.114 11C277.97 11 273 16.3281 273 22.9139C273 29.4996 277.97 34.8278 284.113 34.8278C286.707 34.8278 289.084 33.8681 290.967 32.2795C288.404 30.1284 286.738 26.7197 286.738 22.9139Z" fill="#EB001B"/>
<path d="M308.964 22.9139C308.964 29.4996 303.994 34.8278 297.851 34.8278C295.258 34.8278 292.881 33.8681 290.998 32.2795C293.591 30.0954 295.227 26.7197 295.227 22.9139C295.227 19.1081 293.56 15.7325 290.998 13.5482C292.881 11.9597 295.258 11 297.851 11C303.994 11 308.964 16.3613 308.964 22.9139Z" fill="#F79E1B"/>
</g>
<defs>
<linearGradient id="paint0_linear_25_247" x1="2935.44" y1="69.8976" x2="2978.28" y2="-1669.37" gradientUnits="userSpaceOnUse">
<stop stop-color="#222357"/>
<stop offset="1" stop-color="#254AA5"/>
</linearGradient>
<clipPath id="clip0_25_247">
<rect width="60" height="17" fill="white" transform="translate(177 19)"/>
</clipPath>
<clipPath id="clip1_25_247">
<rect width="36" height="30" fill="white" transform="translate(273 11)"/>
</clipPath>
</defs>
</svg>
