<svg width="202" height="209" viewBox="0 0 202 209" fill="none" xmlns="http://www.w3.org/2000/svg">
<g filter="url(#filter0_d_63_157)">
<rect x="30" y="41" width="142" height="128" rx="10" fill="white" shape-rendering="crispEdges"/>
<path d="M88.1933 116V101.6H90.6333L95.3933 111.16L100.153 101.6H102.593V116H100.053V107.4L95.8733 116H94.9133L90.7333 107.4V116H88.1933ZM106.78 120.8L108.86 115.08L108.9 116.76L104.2 105.2H107.02L110.18 113.38H109.54L112.68 105.2H115.4L109.3 120.8H106.78ZM57.3535 144V129.6H63.4335C63.5735 129.6 63.7602 129.607 63.9935 129.62C64.2335 129.627 64.4468 129.647 64.6335 129.68C65.4935 129.813 66.1968 130.097 66.7435 130.53C67.2968 130.963 67.7035 131.51 67.9635 132.17C68.2235 132.823 68.3535 133.553 68.3535 134.36C68.3535 135.167 68.2202 135.9 67.9535 136.56C67.6935 137.213 67.2868 137.757 66.7335 138.19C66.1868 138.623 65.4868 138.907 64.6335 139.04C64.4468 139.067 64.2335 139.087 63.9935 139.1C63.7535 139.113 63.5668 139.12 63.4335 139.12H60.0735V144H57.3535ZM60.0735 136.58H63.3135C63.4535 136.58 63.6068 136.573 63.7735 136.56C63.9402 136.547 64.0935 136.52 64.2335 136.48C64.6002 136.38 64.8835 136.213 65.0835 135.98C65.2835 135.74 65.4202 135.477 65.4935 135.19C65.5735 134.897 65.6135 134.62 65.6135 134.36C65.6135 134.1 65.5735 133.827 65.4935 133.54C65.4202 133.247 65.2835 132.983 65.0835 132.75C64.8835 132.51 64.6002 132.34 64.2335 132.24C64.0935 132.2 63.9402 132.173 63.7735 132.16C63.6068 132.147 63.4535 132.14 63.3135 132.14H60.0735V136.58ZM70.3613 144V133.2H72.7613V135.84L72.5013 135.5C72.6413 135.127 72.828 134.787 73.0613 134.48C73.2946 134.173 73.5813 133.92 73.9213 133.72C74.1813 133.56 74.4646 133.437 74.7713 133.35C75.078 133.257 75.3946 133.2 75.7213 133.18C76.048 133.153 76.3746 133.16 76.7013 133.2V135.74C76.4013 135.647 76.0513 135.617 75.6513 135.65C75.258 135.677 74.9013 135.767 74.5813 135.92C74.2613 136.067 73.9913 136.263 73.7713 136.51C73.5513 136.75 73.3846 137.037 73.2713 137.37C73.158 137.697 73.1013 138.067 73.1013 138.48V144H70.3613ZM83.2682 144.3C82.1815 144.3 81.2282 144.057 80.4082 143.57C79.5882 143.083 78.9482 142.413 78.4882 141.56C78.0349 140.7 77.8082 139.713 77.8082 138.6C77.8082 137.473 78.0415 136.483 78.5082 135.63C78.9749 134.77 79.6182 134.1 80.4382 133.62C81.2582 133.14 82.2015 132.9 83.2682 132.9C84.3549 132.9 85.3082 133.143 86.1282 133.63C86.9549 134.117 87.5982 134.79 88.0582 135.65C88.5182 136.503 88.7482 137.487 88.7482 138.6C88.7482 139.72 88.5149 140.71 88.0482 141.57C87.5882 142.423 86.9449 143.093 86.1182 143.58C85.2982 144.06 84.3482 144.3 83.2682 144.3ZM83.2682 141.76C84.1415 141.76 84.7915 141.467 85.2182 140.88C85.6515 140.287 85.8682 139.527 85.8682 138.6C85.8682 137.64 85.6482 136.873 85.2082 136.3C84.7749 135.727 84.1282 135.44 83.2682 135.44C82.6749 135.44 82.1882 135.573 81.8082 135.84C81.4282 136.107 81.1449 136.477 80.9582 136.95C80.7782 137.423 80.6882 137.973 80.6882 138.6C80.6882 139.567 80.9049 140.337 81.3382 140.91C81.7782 141.477 82.4215 141.76 83.2682 141.76ZM95.3273 144.3C94.3339 144.3 93.4639 144.05 92.7173 143.55C91.9706 143.05 91.3873 142.37 90.9673 141.51C90.5539 140.65 90.3473 139.68 90.3473 138.6C90.3473 137.5 90.5573 136.523 90.9773 135.67C91.4039 134.81 92.0006 134.133 92.7673 133.64C93.5339 133.147 94.4339 132.9 95.4673 132.9C96.4939 132.9 97.3573 133.15 98.0573 133.65C98.7573 134.15 99.2873 134.83 99.6473 135.69C100.007 136.55 100.187 137.52 100.187 138.6C100.187 139.68 100.004 140.65 99.6373 141.51C99.2773 142.37 98.7373 143.05 98.0173 143.55C97.2973 144.05 96.4006 144.3 95.3273 144.3ZM95.7673 141.88C96.3739 141.88 96.8573 141.743 97.2173 141.47C97.5839 141.197 97.8473 140.813 98.0073 140.32C98.1673 139.827 98.2473 139.253 98.2473 138.6C98.2473 137.947 98.1673 137.373 98.0073 136.88C97.8473 136.387 97.5906 136.003 97.2373 135.73C96.8906 135.457 96.4339 135.32 95.8673 135.32C95.2606 135.32 94.7606 135.47 94.3673 135.77C93.9806 136.063 93.6939 136.46 93.5073 136.96C93.3206 137.453 93.2273 138 93.2273 138.6C93.2273 139.207 93.3173 139.76 93.4973 140.26C93.6773 140.753 93.9539 141.147 94.3273 141.44C94.7006 141.733 95.1806 141.88 95.7673 141.88ZM98.2473 144V136.6H97.9073V129.6H100.647V144H98.2473ZM107.467 144.32C106.621 144.32 105.931 144.177 105.397 143.89C104.864 143.603 104.447 143.24 104.147 142.8C103.854 142.36 103.644 141.903 103.517 141.43C103.391 140.95 103.314 140.513 103.287 140.12C103.261 139.727 103.247 139.44 103.247 139.26V133.2H106.007V138.3C106.007 138.547 106.021 138.863 106.047 139.25C106.074 139.63 106.157 140.013 106.297 140.4C106.437 140.787 106.664 141.11 106.977 141.37C107.297 141.63 107.747 141.76 108.327 141.76C108.561 141.76 108.811 141.723 109.077 141.65C109.344 141.577 109.594 141.437 109.827 141.23C110.061 141.017 110.251 140.707 110.397 140.3C110.551 139.887 110.627 139.347 110.627 138.68L112.187 139.42C112.187 140.273 112.014 141.073 111.667 141.82C111.321 142.567 110.797 143.17 110.097 143.63C109.404 144.09 108.527 144.32 107.467 144.32ZM110.967 144V140.42H110.627V133.2H113.367V144H110.967ZM120.922 144.3C119.802 144.3 118.842 144.05 118.042 143.55C117.242 143.05 116.629 142.37 116.202 141.51C115.775 140.65 115.562 139.68 115.562 138.6C115.562 137.507 115.782 136.53 116.222 135.67C116.669 134.81 117.295 134.133 118.102 133.64C118.909 133.147 119.862 132.9 120.962 132.9C122.235 132.9 123.302 133.223 124.162 133.87C125.029 134.51 125.582 135.387 125.822 136.5L123.102 137.22C122.942 136.66 122.662 136.223 122.262 135.91C121.869 135.597 121.422 135.44 120.922 135.44C120.349 135.44 119.879 135.58 119.512 135.86C119.145 136.133 118.875 136.51 118.702 136.99C118.529 137.463 118.442 138 118.442 138.6C118.442 139.54 118.649 140.303 119.062 140.89C119.482 141.47 120.102 141.76 120.922 141.76C121.535 141.76 122.002 141.62 122.322 141.34C122.642 141.06 122.882 140.66 123.042 140.14L125.822 140.72C125.515 141.867 124.935 142.75 124.082 143.37C123.229 143.99 122.175 144.3 120.922 144.3ZM134.302 144C133.556 144.14 132.822 144.2 132.102 144.18C131.389 144.167 130.749 144.043 130.182 143.81C129.622 143.57 129.196 143.187 128.902 142.66C128.636 142.167 128.496 141.667 128.482 141.16C128.469 140.647 128.462 140.067 128.462 139.42V130.2H131.182V139.26C131.182 139.68 131.186 140.06 131.192 140.4C131.206 140.733 131.276 141 131.402 141.2C131.642 141.58 132.026 141.787 132.552 141.82C133.079 141.853 133.662 141.827 134.302 141.74V144ZM126.622 135.3V133.2H134.302V135.3H126.622ZM140.929 144.3C139.569 144.3 138.469 143.993 137.629 143.38C136.796 142.76 136.289 141.887 136.109 140.76L138.889 140.34C139.002 140.847 139.252 141.243 139.639 141.53C140.032 141.817 140.529 141.96 141.129 141.96C141.622 141.96 142.002 141.867 142.269 141.68C142.536 141.487 142.669 141.22 142.669 140.88C142.669 140.667 142.616 140.497 142.509 140.37C142.402 140.237 142.162 140.107 141.789 139.98C141.422 139.853 140.849 139.687 140.069 139.48C139.189 139.253 138.486 139 137.959 138.72C137.432 138.44 137.052 138.107 136.819 137.72C136.586 137.327 136.469 136.853 136.469 136.3C136.469 135.607 136.646 135.007 136.999 134.5C137.352 133.987 137.849 133.593 138.489 133.32C139.136 133.04 139.896 132.9 140.769 132.9C141.616 132.9 142.366 133.03 143.019 133.29C143.672 133.55 144.199 133.92 144.599 134.4C145.006 134.88 145.256 135.447 145.349 136.1L142.569 136.6C142.522 136.2 142.349 135.883 142.049 135.65C141.749 135.417 141.342 135.28 140.829 135.24C140.329 135.207 139.926 135.273 139.619 135.44C139.319 135.607 139.169 135.847 139.169 136.16C139.169 136.347 139.232 136.503 139.359 136.63C139.492 136.757 139.762 136.887 140.169 137.02C140.582 137.153 141.209 137.327 142.049 137.54C142.869 137.753 143.526 138.003 144.019 138.29C144.519 138.57 144.882 138.91 145.109 139.31C145.336 139.703 145.449 140.18 145.449 140.74C145.449 141.847 145.049 142.717 144.249 143.35C143.449 143.983 142.342 144.3 140.929 144.3Z" fill="#1F1E17"/>
<rect x="66" y="20" width="70" height="70" rx="7" fill="#C5CE38"/>
<path d="M80.2876 37.6145C79.8426 38.3645 79.6238 39.2937 79.1863 41.1479L77.7162 47.377C77.5078 48.2264 77.5062 49.1028 77.7114 49.9527C77.9167 50.8025 78.3244 51.608 78.9097 52.3197C79.495 53.0313 80.2455 53.6343 81.1153 54.0917C81.9851 54.549 82.9559 54.8511 83.9683 54.9794C84.9806 55.1078 86.0133 55.0597 87.0029 54.8381C87.9926 54.6165 88.9185 54.226 89.7239 53.6906C90.5293 53.1552 91.1973 52.4862 91.687 51.7244C92.1767 50.9626 92.4778 50.1242 92.5719 49.2604L92.744 47.8229C92.6508 48.7371 92.7837 49.6578 93.1342 50.526C93.4846 51.3943 94.045 52.191 94.7794 52.8654C95.5138 53.5397 96.4061 54.0768 97.3993 54.4424C98.3925 54.8079 99.4647 54.9939 100.548 54.9883C101.63 54.9828 102.7 54.7859 103.688 54.4103C104.676 54.0346 105.56 53.4884 106.285 52.8066C107.01 52.1248 107.559 51.3224 107.897 50.4507C108.235 49.5789 108.355 48.6569 108.249 47.7437L108.428 49.2604C108.522 50.1242 108.823 50.9626 109.313 51.7244C109.803 52.4862 110.471 53.1552 111.276 53.6906C112.082 54.226 113.007 54.6165 113.997 54.8381C114.987 55.0597 116.019 55.1078 117.032 54.9794C118.044 54.8511 119.015 54.549 119.885 54.0917C120.755 53.6343 121.505 53.0313 122.09 52.3197C122.676 51.608 123.083 50.8025 123.289 49.9527C123.494 49.1028 123.492 48.2264 123.284 47.377L121.814 41.1479C121.376 39.2937 121.157 38.3666 120.712 37.6145C120.249 36.8313 119.596 36.1394 118.796 35.5838C117.997 35.0282 117.068 34.6213 116.071 34.3895C115.112 34.1666 113.996 34.1666 111.764 34.1666H89.2359C87.0038 34.1666 85.8877 34.1666 84.9289 34.3895C83.9318 34.6213 83.0032 35.0282 82.2036 35.5838C81.404 36.1394 80.7512 36.8313 80.2876 37.6145ZM115.911 58.125C117.832 58.1291 119.721 57.7121 121.396 56.9145V59.1666C121.396 67.0229 121.396 70.952 118.515 73.3916C116.196 75.3583 112.743 75.7395 106.646 75.8145V68.5416C106.646 66.5937 106.646 65.6208 106.152 64.8958C105.828 64.4208 105.363 64.0263 104.802 63.752C103.947 63.3333 102.799 63.3333 100.5 63.3333C98.2015 63.3333 97.0534 63.3333 96.1979 63.752C95.6374 64.0263 95.1719 64.4208 94.8483 64.8958C94.3542 65.6208 94.3542 66.5937 94.3542 68.5416V75.8145C88.2575 75.7395 84.8036 75.3562 82.4853 73.3916C79.6042 70.952 79.6042 67.0229 79.6042 59.1666V56.9145C81.2793 57.7124 83.1696 58.1294 85.0912 58.125C87.9322 58.1267 90.6674 57.212 92.7415 55.5666C94.8554 57.2168 97.626 58.1304 100.5 58.125C103.374 58.1302 106.145 57.2166 108.259 55.5666C110.333 57.212 113.07 58.1267 115.911 58.125Z" fill="black"/>
</g>
<defs>
<filter id="filter0_d_63_157" x="0" y="0" width="202" height="209" filterUnits="userSpaceOnUse" color-interpolation-filters="sRGB">
<feFlood flood-opacity="0" result="BackgroundImageFix"/>
<feColorMatrix in="SourceAlpha" type="matrix" values="0 0 0 0 0 0 0 0 0 0 0 0 0 0 0 0 0 0 127 0" result="hardAlpha"/>
<feOffset dy="10"/>
<feGaussianBlur stdDeviation="15"/>
<feComposite in2="hardAlpha" operator="out"/>
<feColorMatrix type="matrix" values="0 0 0 0 0 0 0 0 0 0 0 0 0 0 0 0 0 0 0.07 0"/>
<feBlend mode="normal" in2="BackgroundImageFix" result="effect1_dropShadow_63_157"/>
<feBlend mode="normal" in="SourceGraphic" in2="effect1_dropShadow_63_157" result="shape"/>
</filter>
</defs>
</svg>
