<svg width="153" height="53" viewBox="0 0 153 53" fill="none" xmlns="http://www.w3.org/2000/svg">
<g filter="url(#filter0_d_71_348)">
<rect x="4" width="145" height="45" rx="10" fill="#2ED653" shape-rendering="crispEdges"/>
<rect x="4.5" y="0.5" width="144" height="44" rx="9.5" stroke="#030303" shape-rendering="crispEdges"/>
<rect x="4.5" y="0.5" width="144" height="44" rx="9.5" stroke="black" stroke-opacity="0.2" shape-rendering="crispEdges"/>
<path d="M28.05 29V18.2H29.4L35.0325 26.6375V18.2H36.3825V29H35.0325L29.4 20.555V29H28.05ZM41.9897 29.225C41.1947 29.225 40.4997 29.05 39.9047 28.7C39.3147 28.345 38.8547 27.8525 38.5247 27.2225C38.1947 26.5875 38.0297 25.8475 38.0297 25.0025C38.0297 24.1175 38.1922 23.3525 38.5172 22.7075C38.8422 22.0575 39.2947 21.5575 39.8747 21.2075C40.4597 20.8525 41.1447 20.675 41.9297 20.675C42.7447 20.675 43.4372 20.8625 44.0072 21.2375C44.5822 21.6125 45.0122 22.1475 45.2972 22.8425C45.5872 23.5375 45.7122 24.365 45.6722 25.325H44.3222V24.845C44.3072 23.85 44.1047 23.1075 43.7147 22.6175C43.3247 22.1225 42.7447 21.875 41.9747 21.875C41.1497 21.875 40.5222 22.14 40.0922 22.67C39.6622 23.2 39.4472 23.96 39.4472 24.95C39.4472 25.905 39.6622 26.645 40.0922 27.17C40.5222 27.695 41.1347 27.9575 41.9297 27.9575C42.4647 27.9575 42.9297 27.835 43.3247 27.59C43.7197 27.345 44.0297 26.9925 44.2547 26.5325L45.5372 26.975C45.2222 27.69 44.7472 28.245 44.1122 28.64C43.4822 29.03 42.7747 29.225 41.9897 29.225ZM38.9972 25.325V24.2525H44.9822V25.325H38.9972ZM46.149 29L49.2465 24.905L46.2165 20.9H47.8065L50.0265 23.87L52.224 20.9H53.814L50.784 24.905L53.889 29H52.2915L50.0265 25.94L47.7465 29H46.149ZM59.6135 29C59.1335 29.095 58.6585 29.1325 58.1885 29.1125C57.7235 29.0975 57.3085 29.005 56.9435 28.835C56.5785 28.66 56.301 28.39 56.111 28.025C55.951 27.705 55.8635 27.3825 55.8485 27.0575C55.8385 26.7275 55.8335 26.355 55.8335 25.94V18.65H57.1685V25.88C57.1685 26.21 57.171 26.4925 57.176 26.7275C57.186 26.9625 57.2385 27.165 57.3335 27.335C57.5135 27.655 57.7985 27.8425 58.1885 27.8975C58.5835 27.9525 59.0585 27.9375 59.6135 27.8525V29ZM54.191 22.0025V20.9H59.6135V22.0025H54.191ZM66.5634 29L63.4359 18.2H64.8309L67.2309 26.7425L69.6234 18.2075L71.0259 18.2L73.4259 26.7425L75.8184 18.2H77.2209L74.0934 29H72.7584L70.3284 20.5325L67.8984 29H66.5634ZM81.1157 29.225C80.3207 29.225 79.6257 29.05 79.0307 28.7C78.4407 28.345 77.9807 27.8525 77.6507 27.2225C77.3207 26.5875 77.1557 25.8475 77.1557 25.0025C77.1557 24.1175 77.3182 23.3525 77.6432 22.7075C77.9682 22.0575 78.4207 21.5575 79.0007 21.2075C79.5857 20.8525 80.2707 20.675 81.0557 20.675C81.8707 20.675 82.5632 20.8625 83.1332 21.2375C83.7082 21.6125 84.1382 22.1475 84.4232 22.8425C84.7132 23.5375 84.8382 24.365 84.7982 25.325H83.4482V24.845C83.4332 23.85 83.2307 23.1075 82.8407 22.6175C82.4507 22.1225 81.8707 21.875 81.1007 21.875C80.2757 21.875 79.6482 22.14 79.2182 22.67C78.7882 23.2 78.5732 23.96 78.5732 24.95C78.5732 25.905 78.7882 26.645 79.2182 27.17C79.6482 27.695 80.2607 27.9575 81.0557 27.9575C81.5907 27.9575 82.0557 27.835 82.4507 27.59C82.8457 27.345 83.1557 26.9925 83.3807 26.5325L84.6632 26.975C84.3482 27.69 83.8732 28.245 83.2382 28.64C82.6082 29.03 81.9007 29.225 81.1157 29.225ZM78.1232 25.325V24.2525H84.1082V25.325H78.1232ZM89.978 29.225C89.183 29.225 88.488 29.05 87.893 28.7C87.303 28.345 86.843 27.8525 86.513 27.2225C86.183 26.5875 86.018 25.8475 86.018 25.0025C86.018 24.1175 86.1805 23.3525 86.5055 22.7075C86.8305 22.0575 87.283 21.5575 87.863 21.2075C88.448 20.8525 89.133 20.675 89.918 20.675C90.733 20.675 91.4255 20.8625 91.9955 21.2375C92.5705 21.6125 93.0005 22.1475 93.2855 22.8425C93.5755 23.5375 93.7005 24.365 93.6605 25.325H92.3105V24.845C92.2955 23.85 92.093 23.1075 91.703 22.6175C91.313 22.1225 90.733 21.875 89.963 21.875C89.138 21.875 88.5105 22.14 88.0805 22.67C87.6505 23.2 87.4355 23.96 87.4355 24.95C87.4355 25.905 87.6505 26.645 88.0805 27.17C88.5105 27.695 89.123 27.9575 89.918 27.9575C90.453 27.9575 90.918 27.835 91.313 27.59C91.708 27.345 92.018 26.9925 92.243 26.5325L93.5255 26.975C93.2105 27.69 92.7355 28.245 92.1005 28.64C91.4705 29.03 90.763 29.225 89.978 29.225ZM86.9855 25.325V24.2525H92.9705V25.325H86.9855ZM95.3228 29L95.3303 18.2H96.6803V24.8L100.078 20.9H101.81L98.2328 24.95L102.23 29H100.363L96.6803 25.1V29H95.3228Z" fill="black"/>
<path d="M120.1 15.6667L120.506 15.0697C120.401 14.9917 120.278 14.9453 120.15 14.9357C120.022 14.9261 119.894 14.9536 119.779 15.0152C119.665 15.0769 119.569 15.1703 119.502 15.2852C119.436 15.4001 119.4 15.5321 119.4 15.6667H120.1ZM120.1 30.3334H119.4C119.4 30.468 119.436 30.5999 119.502 30.7149C119.569 30.8298 119.665 30.9232 119.779 30.9848C119.894 31.0464 120.022 31.074 120.15 31.0644C120.278 31.0547 120.401 31.0084 120.506 30.9303L120.1 30.3334ZM129.9 23L130.306 23.5969C130.397 23.5291 130.471 23.4396 130.522 23.3357C130.573 23.2319 130.599 23.1168 130.599 23C130.599 22.8832 130.573 22.7681 130.522 22.6643C130.471 22.5605 130.397 22.4709 130.306 22.4031L129.9 23ZM119.4 15.6667V30.3334H120.8V15.6667H119.4ZM120.506 30.9303L130.306 23.5969L129.494 22.4031L119.694 29.7364L120.506 30.9303ZM130.306 22.4031L120.506 15.0697L119.694 16.2636L129.494 23.5969L130.306 22.4031ZM136.2 14.9333V31.0667H137.6V14.9333H136.2Z" fill="black"/>
</g>
<defs>
<filter id="filter0_d_71_348" x="0" y="0" width="153" height="53" filterUnits="userSpaceOnUse" color-interpolation-filters="sRGB">
<feFlood flood-opacity="0" result="BackgroundImageFix"/>
<feColorMatrix in="SourceAlpha" type="matrix" values="0 0 0 0 0 0 0 0 0 0 0 0 0 0 0 0 0 0 127 0" result="hardAlpha"/>
<feOffset dy="4"/>
<feGaussianBlur stdDeviation="2"/>
<feComposite in2="hardAlpha" operator="out"/>
<feColorMatrix type="matrix" values="0 0 0 0 0 0 0 0 0 0 0 0 0 0 0 0 0 0 0.25 0"/>
<feBlend mode="normal" in2="BackgroundImageFix" result="effect1_dropShadow_71_348"/>
<feBlend mode="normal" in="SourceGraphic" in2="effect1_dropShadow_71_348" result="shape"/>
</filter>
</defs>
</svg>
