<svg width="202" height="219" viewBox="0 0 202 219" fill="none" xmlns="http://www.w3.org/2000/svg">
<g filter="url(#filter0_d_63_162)">
<rect x="30" y="51" width="142" height="128" rx="10" fill="white" shape-rendering="crispEdges"/>
<path d="M75.3499 142.3C73.9099 142.3 72.6666 141.987 71.6199 141.36C70.5799 140.733 69.7766 139.857 69.2099 138.73C68.6499 137.603 68.3699 136.293 68.3699 134.8C68.3699 133.307 68.6499 131.997 69.2099 130.87C69.7766 129.743 70.5799 128.867 71.6199 128.24C72.6666 127.613 73.9099 127.3 75.3499 127.3C76.7899 127.3 78.0299 127.613 79.0699 128.24C80.1166 128.867 80.9199 129.743 81.4799 130.87C82.0466 131.997 82.3299 133.307 82.3299 134.8C82.3299 136.293 82.0466 137.603 81.4799 138.73C80.9199 139.857 80.1166 140.733 79.0699 141.36C78.0299 141.987 76.7899 142.3 75.3499 142.3ZM75.3499 139.74C76.2632 139.753 77.0232 139.557 77.6299 139.15C78.2366 138.743 78.6899 138.167 78.9899 137.42C79.2966 136.673 79.4499 135.8 79.4499 134.8C79.4499 133.8 79.2966 132.933 78.9899 132.2C78.6899 131.467 78.2366 130.897 77.6299 130.49C77.0232 130.083 76.2632 129.873 75.3499 129.86C74.4366 129.847 73.6766 130.043 73.0699 130.45C72.4632 130.857 72.0066 131.433 71.6999 132.18C71.3999 132.927 71.2499 133.8 71.2499 134.8C71.2499 135.8 71.3999 136.667 71.6999 137.4C72.0066 138.133 72.4632 138.703 73.0699 139.11C73.6766 139.517 74.4366 139.727 75.3499 139.74ZM84.3262 142V131.2H86.7262V133.84L86.4662 133.5C86.6062 133.127 86.7928 132.787 87.0262 132.48C87.2595 132.173 87.5462 131.92 87.8862 131.72C88.1462 131.56 88.4295 131.437 88.7362 131.35C89.0428 131.257 89.3595 131.2 89.6862 131.18C90.0128 131.153 90.3395 131.16 90.6662 131.2V133.74C90.3662 133.647 90.0162 133.617 89.6162 133.65C89.2228 133.677 88.8662 133.767 88.5462 133.92C88.2262 134.067 87.9562 134.263 87.7362 134.51C87.5162 134.75 87.3495 135.037 87.2362 135.37C87.1228 135.697 87.0662 136.067 87.0662 136.48V142H84.3262ZM96.753 142.3C95.7597 142.3 94.8897 142.05 94.143 141.55C93.3964 141.05 92.813 140.37 92.393 139.51C91.9797 138.65 91.773 137.68 91.773 136.6C91.773 135.5 91.983 134.523 92.403 133.67C92.8297 132.81 93.4264 132.133 94.193 131.64C94.9597 131.147 95.8597 130.9 96.893 130.9C97.9197 130.9 98.783 131.15 99.483 131.65C100.183 132.15 100.713 132.83 101.073 133.69C101.433 134.55 101.613 135.52 101.613 136.6C101.613 137.68 101.43 138.65 101.063 139.51C100.703 140.37 100.163 141.05 99.443 141.55C98.723 142.05 97.8264 142.3 96.753 142.3ZM97.193 139.88C97.7997 139.88 98.283 139.743 98.643 139.47C99.0097 139.197 99.273 138.813 99.433 138.32C99.593 137.827 99.673 137.253 99.673 136.6C99.673 135.947 99.593 135.373 99.433 134.88C99.273 134.387 99.0164 134.003 98.663 133.73C98.3164 133.457 97.8597 133.32 97.293 133.32C96.6864 133.32 96.1864 133.47 95.793 133.77C95.4064 134.063 95.1197 134.46 94.933 134.96C94.7464 135.453 94.653 136 94.653 136.6C94.653 137.207 94.743 137.76 94.923 138.26C95.103 138.753 95.3797 139.147 95.753 139.44C96.1264 139.733 96.6064 139.88 97.193 139.88ZM99.673 142V134.6H99.333V127.6H102.073V142H99.673ZM109.893 142.3C108.786 142.3 107.81 142.063 106.963 141.59C106.123 141.11 105.463 140.453 104.983 139.62C104.51 138.78 104.273 137.82 104.273 136.74C104.273 135.56 104.506 134.533 104.973 133.66C105.44 132.787 106.083 132.11 106.903 131.63C107.723 131.143 108.666 130.9 109.733 130.9C110.866 130.9 111.83 131.167 112.623 131.7C113.416 132.233 114.003 132.983 114.383 133.95C114.763 134.917 114.896 136.053 114.783 137.36H112.093V136.36C112.093 135.26 111.916 134.47 111.563 133.99C111.216 133.503 110.646 133.26 109.853 133.26C108.926 133.26 108.243 133.543 107.803 134.11C107.37 134.67 107.153 135.5 107.153 136.6C107.153 137.607 107.37 138.387 107.803 138.94C108.243 139.487 108.886 139.76 109.733 139.76C110.266 139.76 110.723 139.643 111.103 139.41C111.483 139.177 111.773 138.84 111.973 138.4L114.693 139.18C114.286 140.167 113.643 140.933 112.763 141.48C111.89 142.027 110.933 142.3 109.893 142.3ZM106.313 137.36V135.34H113.473V137.36H106.313ZM117.041 142V131.2H119.441V133.84L119.181 133.5C119.321 133.127 119.508 132.787 119.741 132.48C119.974 132.173 120.261 131.92 120.601 131.72C120.861 131.56 121.144 131.437 121.451 131.35C121.758 131.257 122.074 131.2 122.401 131.18C122.728 131.153 123.054 131.16 123.381 131.2V133.74C123.081 133.647 122.731 133.617 122.331 133.65C121.938 133.677 121.581 133.767 121.261 133.92C120.941 134.067 120.671 134.263 120.451 134.51C120.231 134.75 120.064 135.037 119.951 135.37C119.838 135.697 119.781 136.067 119.781 136.48V142H117.041ZM129.113 142.3C127.753 142.3 126.653 141.993 125.813 141.38C124.979 140.76 124.473 139.887 124.293 138.76L127.073 138.34C127.186 138.847 127.436 139.243 127.823 139.53C128.216 139.817 128.713 139.96 129.313 139.96C129.806 139.96 130.186 139.867 130.453 139.68C130.719 139.487 130.853 139.22 130.853 138.88C130.853 138.667 130.799 138.497 130.693 138.37C130.586 138.237 130.346 138.107 129.973 137.98C129.606 137.853 129.033 137.687 128.253 137.48C127.373 137.253 126.669 137 126.143 136.72C125.616 136.44 125.236 136.107 125.003 135.72C124.769 135.327 124.653 134.853 124.653 134.3C124.653 133.607 124.829 133.007 125.183 132.5C125.536 131.987 126.033 131.593 126.673 131.32C127.319 131.04 128.079 130.9 128.953 130.9C129.799 130.9 130.549 131.03 131.203 131.29C131.856 131.55 132.383 131.92 132.783 132.4C133.189 132.88 133.439 133.447 133.533 134.1L130.753 134.6C130.706 134.2 130.533 133.883 130.233 133.65C129.933 133.417 129.526 133.28 129.013 133.24C128.513 133.207 128.109 133.273 127.803 133.44C127.503 133.607 127.353 133.847 127.353 134.16C127.353 134.347 127.416 134.503 127.543 134.63C127.676 134.757 127.946 134.887 128.353 135.02C128.766 135.153 129.393 135.327 130.233 135.54C131.053 135.753 131.709 136.003 132.203 136.29C132.703 136.57 133.066 136.91 133.293 137.31C133.519 137.703 133.633 138.18 133.633 138.74C133.633 139.847 133.233 140.717 132.433 141.35C131.633 141.983 130.526 142.3 129.113 142.3Z" fill="#1F1E17"/>
<rect x="66" y="20" width="70" height="70" rx="7" fill="#C5CE38"/>
<path d="M110.05 38H115C115.53 38 116.039 38.2107 116.414 38.5858C116.789 38.9609 117 39.4696 117 40V73C117 73.5304 116.789 74.0391 116.414 74.4142C116.039 74.7893 115.53 75 115 75H87C86.4696 75 85.9609 74.7893 85.5858 74.4142C85.2107 74.0391 85 73.5304 85 73V40C85 39.4696 85.2107 38.9609 85.5858 38.5858C85.9609 38.2107 86.4696 38 87 38H94V41H108V38H110.05Z" stroke="black" stroke-width="4" stroke-linejoin="round"/>
<path d="M104 50L96 58.001H106.004L98 66.001M94 35H108V41H94V35Z" stroke="black" stroke-width="4" stroke-linecap="round" stroke-linejoin="round"/>
</g>
<defs>
<filter id="filter0_d_63_162" x="0" y="0" width="202" height="219" filterUnits="userSpaceOnUse" color-interpolation-filters="sRGB">
<feFlood flood-opacity="0" result="BackgroundImageFix"/>
<feColorMatrix in="SourceAlpha" type="matrix" values="0 0 0 0 0 0 0 0 0 0 0 0 0 0 0 0 0 0 127 0" result="hardAlpha"/>
<feOffset dy="10"/>
<feGaussianBlur stdDeviation="15"/>
<feComposite in2="hardAlpha" operator="out"/>
<feColorMatrix type="matrix" values="0 0 0 0 0 0 0 0 0 0 0 0 0 0 0 0 0 0 0.07 0"/>
<feBlend mode="normal" in2="BackgroundImageFix" result="effect1_dropShadow_63_162"/>
<feBlend mode="normal" in="SourceGraphic" in2="effect1_dropShadow_63_162" result="shape"/>
</filter>
</defs>
</svg>
