<svg width="202" height="209" viewBox="0 0 202 209" fill="none" xmlns="http://www.w3.org/2000/svg">
<rect x="15" y="33" width="171" height="144" rx="10" fill="#008926"/>
<g filter="url(#filter0_d_63_111)">
<rect x="30" y="41" width="142" height="128" rx="10" fill="white" shape-rendering="crispEdges"/>
<path d="M59.0723 133V118.6H65.1523C65.2923 118.6 65.4789 118.607 65.7123 118.62C65.9523 118.627 66.1656 118.647 66.3523 118.68C67.2123 118.813 67.9156 119.097 68.4623 119.53C69.0156 119.963 69.4223 120.51 69.6823 121.17C69.9423 121.823 70.0723 122.553 70.0723 123.36C70.0723 124.167 69.9389 124.9 69.6723 125.56C69.4123 126.213 69.0056 126.757 68.4523 127.19C67.9056 127.623 67.2056 127.907 66.3523 128.04C66.1656 128.067 65.9523 128.087 65.7123 128.1C65.4723 128.113 65.2856 128.12 65.1523 128.12H61.7923V133H59.0723ZM61.7923 125.58H65.0323C65.1723 125.58 65.3256 125.573 65.4923 125.56C65.6589 125.547 65.8123 125.52 65.9523 125.48C66.3189 125.38 66.6023 125.213 66.8023 124.98C67.0023 124.74 67.1389 124.477 67.2123 124.19C67.2923 123.897 67.3323 123.62 67.3323 123.36C67.3323 123.1 67.2923 122.827 67.2123 122.54C67.1389 122.247 67.0023 121.983 66.8023 121.75C66.6023 121.51 66.3189 121.34 65.9523 121.24C65.8123 121.2 65.6589 121.173 65.4923 121.16C65.3256 121.147 65.1723 121.14 65.0323 121.14H61.7923V125.58ZM74.8652 133.3C74.0919 133.3 73.4352 133.153 72.8952 132.86C72.3619 132.56 71.9552 132.163 71.6752 131.67C71.4019 131.17 71.2652 130.62 71.2652 130.02C71.2652 129.52 71.3419 129.063 71.4952 128.65C71.6486 128.237 71.8952 127.873 72.2352 127.56C72.5819 127.24 73.0452 126.973 73.6252 126.76C74.0252 126.613 74.5019 126.483 75.0552 126.37C75.6086 126.257 76.2352 126.15 76.9352 126.05C77.6352 125.943 78.4052 125.827 79.2452 125.7L78.2652 126.24C78.2652 125.6 78.1119 125.13 77.8052 124.83C77.4986 124.53 76.9852 124.38 76.2652 124.38C75.8652 124.38 75.4486 124.477 75.0152 124.67C74.5819 124.863 74.2786 125.207 74.1052 125.7L71.6452 124.92C71.9186 124.027 72.4319 123.3 73.1852 122.74C73.9386 122.18 74.9652 121.9 76.2652 121.9C77.2186 121.9 78.0652 122.047 78.8052 122.34C79.5452 122.633 80.1052 123.14 80.4852 123.86C80.6986 124.26 80.8252 124.66 80.8652 125.06C80.9052 125.46 80.9252 125.907 80.9252 126.4V133H78.5452V130.78L78.8852 131.24C78.3586 131.967 77.7886 132.493 77.1752 132.82C76.5686 133.14 75.7986 133.3 74.8652 133.3ZM75.4452 131.16C75.9452 131.16 76.3652 131.073 76.7052 130.9C77.0519 130.72 77.3252 130.517 77.5252 130.29C77.7319 130.063 77.8719 129.873 77.9452 129.72C78.0852 129.427 78.1652 129.087 78.1852 128.7C78.2119 128.307 78.2252 127.98 78.2252 127.72L79.0252 127.92C78.2186 128.053 77.5652 128.167 77.0652 128.26C76.5652 128.347 76.1619 128.427 75.8552 128.5C75.5486 128.573 75.2786 128.653 75.0452 128.74C74.7786 128.847 74.5619 128.963 74.3952 129.09C74.2352 129.21 74.1152 129.343 74.0352 129.49C73.9619 129.637 73.9252 129.8 73.9252 129.98C73.9252 130.227 73.9852 130.44 74.1052 130.62C74.2319 130.793 74.4086 130.927 74.6352 131.02C74.8619 131.113 75.1319 131.16 75.4452 131.16ZM84.2999 137.8L86.3799 132.08L86.4199 133.76L81.7199 122.2H84.5399L87.6999 130.38H87.0599L90.1999 122.2H92.9199L86.8199 137.8H84.2999ZM107.326 133V126.62C107.326 125.907 107.156 125.353 106.816 124.96C106.483 124.56 106.019 124.36 105.426 124.36C105.046 124.36 104.716 124.45 104.436 124.63C104.156 124.803 103.936 125.05 103.776 125.37C103.623 125.683 103.546 126.047 103.546 126.46L102.406 125.7C102.406 124.96 102.579 124.307 102.926 123.74C103.279 123.173 103.749 122.733 104.336 122.42C104.929 122.1 105.586 121.94 106.306 121.94C107.539 121.94 108.469 122.307 109.096 123.04C109.729 123.767 110.046 124.72 110.046 125.9V133H107.326ZM94.3062 133V122.2H96.7062V125.78H97.0462V133H94.3062ZM100.826 133V126.62C100.826 125.907 100.656 125.353 100.316 124.96C99.9828 124.56 99.5195 124.36 98.9262 124.36C98.3595 124.36 97.9028 124.557 97.5562 124.95C97.2162 125.337 97.0462 125.84 97.0462 126.46L95.9062 125.66C95.9062 124.953 96.0828 124.32 96.4362 123.76C96.7895 123.2 97.2628 122.757 97.8562 122.43C98.4562 122.103 99.1262 121.94 99.8662 121.94C100.713 121.94 101.406 122.12 101.946 122.48C102.493 122.84 102.896 123.32 103.156 123.92C103.416 124.52 103.546 125.18 103.546 125.9V133H100.826ZM117.471 133.3C116.364 133.3 115.388 133.063 114.541 132.59C113.701 132.11 113.041 131.453 112.561 130.62C112.088 129.78 111.851 128.82 111.851 127.74C111.851 126.56 112.084 125.533 112.551 124.66C113.018 123.787 113.661 123.11 114.481 122.63C115.301 122.143 116.244 121.9 117.311 121.9C118.444 121.9 119.408 122.167 120.201 122.7C120.994 123.233 121.581 123.983 121.961 124.95C122.341 125.917 122.474 127.053 122.361 128.36H119.671V127.36C119.671 126.26 119.494 125.47 119.141 124.99C118.794 124.503 118.224 124.26 117.431 124.26C116.504 124.26 115.821 124.543 115.381 125.11C114.948 125.67 114.731 126.5 114.731 127.6C114.731 128.607 114.948 129.387 115.381 129.94C115.821 130.487 116.464 130.76 117.311 130.76C117.844 130.76 118.301 130.643 118.681 130.41C119.061 130.177 119.351 129.84 119.551 129.4L122.271 130.18C121.864 131.167 121.221 131.933 120.341 132.48C119.468 133.027 118.511 133.3 117.471 133.3ZM113.891 128.36V126.34H121.051V128.36H113.891ZM131.686 133V127.9C131.686 127.653 131.673 127.34 131.646 126.96C131.619 126.573 131.536 126.187 131.396 125.8C131.256 125.413 131.026 125.09 130.706 124.83C130.393 124.57 129.946 124.44 129.366 124.44C129.133 124.44 128.883 124.477 128.616 124.55C128.349 124.623 128.099 124.767 127.866 124.98C127.633 125.187 127.439 125.493 127.286 125.9C127.139 126.307 127.066 126.847 127.066 127.52L125.506 126.78C125.506 125.927 125.679 125.127 126.026 124.38C126.373 123.633 126.893 123.03 127.586 122.57C128.286 122.11 129.166 121.88 130.226 121.88C131.073 121.88 131.763 122.023 132.296 122.31C132.829 122.597 133.243 122.96 133.536 123.4C133.836 123.84 134.049 124.3 134.176 124.78C134.303 125.253 134.379 125.687 134.406 126.08C134.433 126.473 134.446 126.76 134.446 126.94V133H131.686ZM124.306 133V122.2H126.726V125.78H127.066V133H124.306ZM143.521 133C142.774 133.14 142.041 133.2 141.321 133.18C140.608 133.167 139.968 133.043 139.401 132.81C138.841 132.57 138.414 132.187 138.121 131.66C137.854 131.167 137.714 130.667 137.701 130.16C137.688 129.647 137.681 129.067 137.681 128.42V119.2H140.401V128.26C140.401 128.68 140.404 129.06 140.411 129.4C140.424 129.733 140.494 130 140.621 130.2C140.861 130.58 141.244 130.787 141.771 130.82C142.298 130.853 142.881 130.827 143.521 130.74V133ZM135.841 124.3V122.2H143.521V124.3H135.841Z" fill="#1F1E17"/>
<rect x="66" y="20" width="70" height="70" rx="7" fill="#C5CE38"/>
<path d="M115.625 54.5C111.35 54.5 107.75 57.6334 107.75 61.3542C107.75 66.4459 115.625 74.0834 115.625 74.0834C115.625 74.0834 123.5 66.4459 123.5 61.3542C123.5 57.6334 119.9 54.5 115.625 54.5ZM115.625 63.9C114.05 63.9 112.925 62.725 112.925 61.55C112.925 60.1792 114.275 59.2 115.625 59.2C116.975 59.2 118.325 60.375 118.325 61.55C118.55 62.725 117.2 63.9 115.625 63.9ZM106.738 70.1667H83C81.8065 70.1667 80.6619 69.7541 79.818 69.0195C78.9741 68.285 78.5 67.2888 78.5 66.25V42.75C78.5 41.7113 78.9741 40.7151 79.818 39.9805C80.6619 39.246 81.8065 38.8334 83 38.8334H119C121.498 38.8334 123.5 40.5763 123.5 42.75V53.1292C122.184 52.1616 120.652 51.4415 119 51.0142V46.6667H83V52.5417H108.628C105.41 54.5 103.25 57.7509 103.25 61.3542C103.25 64.2917 104.87 67.4446 106.738 70.1667Z" fill="black"/>
</g>
<defs>
<filter id="filter0_d_63_111" x="0" y="0" width="202" height="209" filterUnits="userSpaceOnUse" color-interpolation-filters="sRGB">
<feFlood flood-opacity="0" result="BackgroundImageFix"/>
<feColorMatrix in="SourceAlpha" type="matrix" values="0 0 0 0 0 0 0 0 0 0 0 0 0 0 0 0 0 0 127 0" result="hardAlpha"/>
<feOffset dy="10"/>
<feGaussianBlur stdDeviation="15"/>
<feComposite in2="hardAlpha" operator="out"/>
<feColorMatrix type="matrix" values="0 0 0 0 0 0 0 0 0 0 0 0 0 0 0 0 0 0 0.07 0"/>
<feBlend mode="normal" in2="BackgroundImageFix" result="effect1_dropShadow_63_111"/>
<feBlend mode="normal" in="SourceGraphic" in2="effect1_dropShadow_63_111" result="shape"/>
</filter>
</defs>
</svg>
