<svg width="153" height="53" viewBox="0 0 153 53" fill="none" xmlns="http://www.w3.org/2000/svg">
<g filter="url(#filter0_d_71_345)">
<rect x="4" width="145" height="45" rx="10" fill="#F8F7F0" shape-rendering="crispEdges"/>
<rect x="4" width="145" height="45" rx="10" fill="#F25454" fill-opacity="0.71" shape-rendering="crispEdges"/>
<rect x="4.5" y="0.5" width="144" height="44" rx="9.5" stroke="#010101" shape-rendering="crispEdges"/>
<path d="M40.98 28V17.92H44.963C45.061 17.92 45.1777 17.9247 45.313 17.934C45.4483 17.9387 45.579 17.9527 45.705 17.976C46.251 18.06 46.7083 18.2467 47.077 18.536C47.4503 18.8253 47.7303 19.1917 47.917 19.635C48.1037 20.0737 48.197 20.5613 48.197 21.098C48.197 21.63 48.1013 22.1177 47.91 22.561C47.7233 22.9997 47.4433 23.366 47.07 23.66C46.7013 23.9493 46.2463 24.136 45.705 24.22C45.579 24.2387 45.4483 24.2527 45.313 24.262C45.1777 24.2713 45.061 24.276 44.963 24.276H42.226V28H40.98ZM42.226 23.093H44.921C45.0097 23.093 45.11 23.0883 45.222 23.079C45.3387 23.0697 45.4483 23.0533 45.551 23.03C45.873 22.9553 46.1343 22.82 46.335 22.624C46.5403 22.4233 46.6897 22.19 46.783 21.924C46.8763 21.6533 46.923 21.378 46.923 21.098C46.923 20.818 46.8763 20.545 46.783 20.279C46.6897 20.0083 46.5403 19.7727 46.335 19.572C46.1343 19.3713 45.873 19.236 45.551 19.166C45.4483 19.138 45.3387 19.1217 45.222 19.117C45.11 19.1077 45.0097 19.103 44.921 19.103H42.226V23.093ZM52.8009 28.21C52.0589 28.21 51.4103 28.0467 50.8549 27.72C50.3043 27.3887 49.8749 26.929 49.5669 26.341C49.2589 25.7483 49.1049 25.0577 49.1049 24.269C49.1049 23.443 49.2566 22.729 49.5599 22.127C49.8633 21.5203 50.2856 21.0537 50.8269 20.727C51.3729 20.3957 52.0123 20.23 52.7449 20.23C53.5056 20.23 54.1519 20.405 54.6839 20.755C55.2206 21.105 55.6219 21.6043 55.8879 22.253C56.1586 22.9017 56.2753 23.674 56.2379 24.57H54.9779V24.122C54.9639 23.1933 54.7749 22.5003 54.4109 22.043C54.0469 21.581 53.5056 21.35 52.7869 21.35C52.0169 21.35 51.4313 21.5973 51.0299 22.092C50.6286 22.5867 50.4279 23.296 50.4279 24.22C50.4279 25.1113 50.6286 25.802 51.0299 26.292C51.4313 26.782 52.0029 27.027 52.7449 27.027C53.2443 27.027 53.6783 26.9127 54.0469 26.684C54.4156 26.4553 54.7049 26.1263 54.9149 25.697L56.1119 26.11C55.8179 26.7773 55.3746 27.2953 54.7819 27.664C54.1939 28.028 53.5336 28.21 52.8009 28.21ZM50.0079 24.57V23.569H55.5939V24.57H50.0079ZM57.7964 28V20.44H58.9094V22.267L58.7274 22.029C58.8161 21.7957 58.9304 21.581 59.0704 21.385C59.2151 21.189 59.3761 21.028 59.5534 20.902C59.7494 20.7433 59.9711 20.622 60.2184 20.538C60.4657 20.454 60.7177 20.405 60.9744 20.391C61.2311 20.3723 61.4714 20.3887 61.6954 20.44V21.609C61.4341 21.539 61.1471 21.5203 60.8344 21.553C60.5217 21.5857 60.2324 21.7 59.9664 21.896C59.7237 22.0687 59.5347 22.2787 59.3994 22.526C59.2687 22.7733 59.1777 23.0417 59.1264 23.331C59.0751 23.6157 59.0494 23.9073 59.0494 24.206V28H57.7964ZM65.0631 28L62.3191 20.44H63.5791L65.7001 26.411L67.8141 20.44H69.0811L66.3371 28H65.0631ZM70.4872 19.103V17.815H71.7332V19.103H70.4872ZM70.4872 28V20.44H71.7332V28H70.4872ZM77.0535 28.21C76.3022 28.21 75.6535 28.0397 75.1075 27.699C74.5662 27.3583 74.1485 26.887 73.8545 26.285C73.5605 25.683 73.4135 24.9923 73.4135 24.213C73.4135 23.4197 73.5628 22.7243 73.8615 22.127C74.1602 21.5297 74.5825 21.0653 75.1285 20.734C75.6745 20.398 76.3162 20.23 77.0535 20.23C77.8095 20.23 78.4605 20.4003 79.0065 20.741C79.5525 21.077 79.9702 21.546 80.2595 22.148C80.5535 22.7453 80.7005 23.4337 80.7005 24.213C80.7005 25.0017 80.5535 25.697 80.2595 26.299C79.9655 26.8963 79.5455 27.3653 78.9995 27.706C78.4535 28.042 77.8048 28.21 77.0535 28.21ZM77.0535 27.027C77.8375 27.027 78.4208 26.7657 78.8035 26.243C79.1862 25.7203 79.3775 25.0437 79.3775 24.213C79.3775 23.359 79.1838 22.68 78.7965 22.176C78.4092 21.6673 77.8282 21.413 77.0535 21.413C76.5262 21.413 76.0922 21.532 75.7515 21.77C75.4108 22.008 75.1565 22.337 74.9885 22.757C74.8205 23.177 74.7365 23.6623 74.7365 24.213C74.7365 25.0623 74.9325 25.7437 75.3245 26.257C75.7165 26.7703 76.2928 27.027 77.0535 27.027ZM85.1117 28.196C84.6264 28.196 84.2087 28.119 83.8587 27.965C83.5134 27.811 83.2264 27.6057 82.9977 27.349C82.7691 27.0923 82.5894 26.8077 82.4587 26.495C82.3281 26.1823 82.2347 25.8627 82.1787 25.536C82.1274 25.2093 82.1017 24.9037 82.1017 24.619V20.44H83.3617V24.227C83.3617 24.5817 83.3944 24.9247 83.4597 25.256C83.5251 25.5873 83.6347 25.886 83.7887 26.152C83.9474 26.418 84.1574 26.628 84.4187 26.782C84.6847 26.936 85.0161 27.013 85.4127 27.013C85.7254 27.013 86.0101 26.9593 86.2667 26.852C86.5234 26.7447 86.7427 26.586 86.9247 26.376C87.1067 26.1613 87.2467 25.8907 87.3447 25.564C87.4427 25.2373 87.4917 24.857 87.4917 24.423L88.3107 24.675C88.3107 25.403 88.1777 26.0307 87.9117 26.558C87.6504 27.0853 87.2794 27.4913 86.7987 27.776C86.3227 28.056 85.7604 28.196 85.1117 28.196ZM87.6317 28V25.977H87.4917V20.44H88.7447V28H87.6317ZM93.5606 28.203C92.6599 28.203 91.9203 28.007 91.3416 27.615C90.7676 27.2183 90.4153 26.6653 90.2846 25.956L91.5586 25.753C91.6613 26.1637 91.8969 26.4903 92.2656 26.733C92.6343 26.971 93.0916 27.09 93.6376 27.09C94.1556 27.09 94.5616 26.9827 94.8556 26.768C95.1496 26.5533 95.2966 26.2617 95.2966 25.893C95.2966 25.6783 95.2476 25.5057 95.1496 25.375C95.0516 25.2397 94.8486 25.1137 94.5406 24.997C94.2373 24.8803 93.7776 24.7403 93.1616 24.577C92.4943 24.3997 91.9693 24.2153 91.5866 24.024C91.2039 23.8327 90.9309 23.611 90.7676 23.359C90.6043 23.107 90.5226 22.8013 90.5226 22.442C90.5226 21.9987 90.6439 21.6113 90.8866 21.28C91.1293 20.944 91.4676 20.685 91.9016 20.503C92.3403 20.321 92.8489 20.23 93.4276 20.23C94.0016 20.23 94.5149 20.321 94.9676 20.503C95.4203 20.685 95.7843 20.944 96.0596 21.28C96.3396 21.6113 96.5053 21.9987 96.5566 22.442L95.2826 22.673C95.2219 22.267 95.0259 21.9473 94.6946 21.714C94.3679 21.4807 93.9456 21.357 93.4276 21.343C92.9376 21.3243 92.5386 21.4107 92.2306 21.602C91.9273 21.7933 91.7756 22.0523 91.7756 22.379C91.7756 22.561 91.8316 22.7173 91.9436 22.848C92.0603 22.9787 92.2726 23.1023 92.5806 23.219C92.8933 23.3357 93.3459 23.4687 93.9386 23.618C94.6059 23.786 95.1309 23.9703 95.5136 24.171C95.9009 24.367 96.1763 24.6003 96.3396 24.871C96.5029 25.137 96.5846 25.466 96.5846 25.858C96.5846 26.586 96.3163 27.16 95.7796 27.58C95.2429 27.9953 94.5033 28.203 93.5606 28.203ZM103.08 28L100.161 17.92H101.463L103.703 25.893L105.936 17.927L107.245 17.92L109.485 25.893L111.718 17.92H113.027L110.108 28H108.862L106.594 20.097L104.326 28H103.08ZM116.662 28.21C115.92 28.21 115.272 28.0467 114.716 27.72C114.166 27.3887 113.736 26.929 113.428 26.341C113.12 25.7483 112.966 25.0577 112.966 24.269C112.966 23.443 113.118 22.729 113.421 22.127C113.725 21.5203 114.147 21.0537 114.688 20.727C115.234 20.3957 115.874 20.23 116.606 20.23C117.367 20.23 118.013 20.405 118.545 20.755C119.082 21.105 119.483 21.6043 119.749 22.253C120.02 22.9017 120.137 23.674 120.099 24.57H118.839V24.122C118.825 23.1933 118.636 22.5003 118.272 22.043C117.908 21.581 117.367 21.35 116.648 21.35C115.878 21.35 115.293 21.5973 114.891 22.092C114.49 22.5867 114.289 23.296 114.289 24.22C114.289 25.1113 114.49 25.802 114.891 26.292C115.293 26.782 115.864 27.027 116.606 27.027C117.106 27.027 117.54 26.9127 117.908 26.684C118.277 26.4553 118.566 26.1263 118.776 25.697L119.973 26.11C119.679 26.7773 119.236 27.2953 118.643 27.664C118.055 28.028 117.395 28.21 116.662 28.21ZM113.869 24.57V23.569H119.455V24.57H113.869ZM124.934 28.21C124.192 28.21 123.543 28.0467 122.988 27.72C122.437 27.3887 122.008 26.929 121.7 26.341C121.392 25.7483 121.238 25.0577 121.238 24.269C121.238 23.443 121.389 22.729 121.693 22.127C121.996 21.5203 122.418 21.0537 122.96 20.727C123.506 20.3957 124.145 20.23 124.878 20.23C125.638 20.23 126.285 20.405 126.817 20.755C127.353 21.105 127.755 21.6043 128.021 22.253C128.291 22.9017 128.408 23.674 128.371 24.57H127.111V24.122C127.097 23.1933 126.908 22.5003 126.544 22.043C126.18 21.581 125.638 21.35 124.92 21.35C124.15 21.35 123.564 21.5973 123.163 22.092C122.761 22.5867 122.561 23.296 122.561 24.22C122.561 25.1113 122.761 25.802 123.163 26.292C123.564 26.782 124.136 27.027 124.878 27.027C125.377 27.027 125.811 26.9127 126.18 26.684C126.548 26.4553 126.838 26.1263 127.048 25.697L128.245 26.11C127.951 26.7773 127.507 27.2953 126.915 27.664C126.327 28.028 125.666 28.21 124.934 28.21ZM122.141 24.57V23.569H127.727V24.57H122.141ZM129.922 28L129.929 17.92H131.189V24.08L134.36 20.44H135.977L132.638 24.22L136.369 28H134.626L131.189 24.36V28H129.922Z" fill="black"/>
<path d="M17.2408 15.3917V30.6084M30.7592 29.0721V16.9317C30.7588 16.6828 30.695 16.4389 30.5752 16.2277C30.4553 16.0165 30.2841 15.8465 30.0809 15.7368C29.8777 15.6271 29.6507 15.5822 29.4255 15.607C29.2003 15.6319 28.986 15.7256 28.8067 15.8776L21.1667 22.4161C21.0156 22.5461 20.8946 22.7136 20.8138 22.9049C20.7329 23.0963 20.6945 23.3059 20.7015 23.5168C20.7086 23.7276 20.761 23.9336 20.8545 24.1179C20.9479 24.3021 21.0798 24.4594 21.2392 24.5767L28.88 30.1803C29.0624 30.312 29.2738 30.3872 29.4918 30.3979C29.7098 30.4086 29.9264 30.3544 30.1188 30.2411C30.3112 30.1277 30.4722 29.9594 30.5849 29.7538C30.6976 29.5482 30.7578 29.3121 30.7592 29.0721Z" stroke="black" stroke-width="1.5" stroke-linecap="round" stroke-linejoin="round"/>
</g>
<defs>
<filter id="filter0_d_71_345" x="0" y="0" width="153" height="53" filterUnits="userSpaceOnUse" color-interpolation-filters="sRGB">
<feFlood flood-opacity="0" result="BackgroundImageFix"/>
<feColorMatrix in="SourceAlpha" type="matrix" values="0 0 0 0 0 0 0 0 0 0 0 0 0 0 0 0 0 0 127 0" result="hardAlpha"/>
<feOffset dy="4"/>
<feGaussianBlur stdDeviation="2"/>
<feComposite in2="hardAlpha" operator="out"/>
<feColorMatrix type="matrix" values="0 0 0 0 0 0 0 0 0 0 0 0 0 0 0 0 0 0 0.25 0"/>
<feBlend mode="normal" in2="BackgroundImageFix" result="effect1_dropShadow_71_345"/>
<feBlend mode="normal" in="SourceGraphic" in2="effect1_dropShadow_71_345" result="shape"/>
</filter>
</defs>
</svg>
