<svg width="377" height="27" viewBox="0 0 377 27" fill="none" xmlns="http://www.w3.org/2000/svg">
<path d="M282.984 2.2H286.896C288.256 2.2 289.248 2.52 289.872 3.16C290.496 3.784 290.808 4.752 290.808 6.064V7.096C290.808 8.84 290.232 9.944 289.08 10.408V10.456C289.72 10.648 290.168 11.04 290.424 11.632C290.696 12.224 290.832 13.016 290.832 14.008V16.96C290.832 17.44 290.848 17.832 290.88 18.136C290.912 18.424 290.992 18.712 291.12 19H288.432C288.336 18.728 288.272 18.472 288.24 18.232C288.208 17.992 288.192 17.56 288.192 16.936V13.864C288.192 13.096 288.064 12.56 287.808 12.256C287.568 11.952 287.144 11.8 286.536 11.8H285.624V19H282.984V2.2ZM286.584 9.4C287.112 9.4 287.504 9.264 287.76 8.992C288.032 8.72 288.168 8.264 288.168 7.624V6.328C288.168 5.72 288.056 5.28 287.832 5.008C287.624 4.736 287.288 4.6 286.824 4.6H285.624V9.4H286.584ZM296.576 19.24C295.296 19.24 294.328 18.88 293.672 18.16C293.016 17.424 292.688 16.376 292.688 15.016V14.056H295.184V15.208C295.184 16.296 295.64 16.84 296.552 16.84C297 16.84 297.336 16.712 297.56 16.456C297.8 16.184 297.92 15.752 297.92 15.16C297.92 14.456 297.76 13.84 297.44 13.312C297.12 12.768 296.528 12.12 295.664 11.368C294.576 10.408 293.816 9.544 293.384 8.776C292.952 7.992 292.736 7.112 292.736 6.136C292.736 4.808 293.072 3.784 293.744 3.064C294.416 2.328 295.392 1.96 296.672 1.96C297.936 1.96 298.888 2.328 299.528 3.064C300.184 3.784 300.512 4.824 300.512 6.184V6.88H298.016V6.016C298.016 5.44 297.904 5.024 297.68 4.768C297.456 4.496 297.128 4.36 296.696 4.36C295.816 4.36 295.376 4.896 295.376 5.968C295.376 6.576 295.536 7.144 295.856 7.672C296.192 8.2 296.792 8.84 297.656 9.592C298.76 10.552 299.52 11.424 299.936 12.208C300.352 12.992 300.56 13.912 300.56 14.968C300.56 16.344 300.216 17.4 299.528 18.136C298.856 18.872 297.872 19.24 296.576 19.24ZM302.553 16.456H305.097V19H302.553V16.456ZM311.253 6.184H308.493V4.312C309.245 4.312 309.845 4.248 310.293 4.12C310.757 3.992 311.125 3.784 311.397 3.496C311.669 3.192 311.909 2.76 312.117 2.2H313.893V19H311.253V6.184ZM321.51 19.24C320.23 19.24 319.254 18.88 318.582 18.16C317.91 17.424 317.574 16.376 317.574 15.016V13.696H320.07V15.208C320.07 16.296 320.526 16.84 321.438 16.84C322.35 16.84 322.806 16.296 322.806 15.208V11.44C322.806 10.336 322.35 9.784 321.438 9.784C320.526 9.784 320.07 10.336 320.07 11.44V11.584H317.574L318.054 2.2H325.014V4.6H320.406L320.19 8.608H320.238C320.734 7.792 321.494 7.384 322.518 7.384C323.478 7.384 324.206 7.712 324.702 8.368C325.198 9.024 325.446 9.976 325.446 11.224V15.016C325.446 16.376 325.11 17.424 324.438 18.16C323.766 18.88 322.79 19.24 321.51 19.24ZM331.552 19.24C330.256 19.24 329.264 18.872 328.576 18.136C327.888 17.4 327.544 16.36 327.544 15.016V6.184C327.544 4.84 327.888 3.8 328.576 3.064C329.264 2.328 330.256 1.96 331.552 1.96C332.848 1.96 333.84 2.328 334.528 3.064C335.216 3.8 335.56 4.84 335.56 6.184V15.016C335.56 16.36 335.216 17.4 334.528 18.136C333.84 18.872 332.848 19.24 331.552 19.24ZM331.552 16.84C332.464 16.84 332.92 16.288 332.92 15.184V6.016C332.92 4.912 332.464 4.36 331.552 4.36C330.64 4.36 330.184 4.912 330.184 6.016V15.184C330.184 16.288 330.64 16.84 331.552 16.84ZM341.641 19.24C340.345 19.24 339.353 18.872 338.665 18.136C337.977 17.4 337.633 16.36 337.633 15.016V6.184C337.633 4.84 337.977 3.8 338.665 3.064C339.353 2.328 340.345 1.96 341.641 1.96C342.937 1.96 343.929 2.328 344.617 3.064C345.305 3.8 345.649 4.84 345.649 6.184V15.016C345.649 16.36 345.305 17.4 344.617 18.136C343.929 18.872 342.937 19.24 341.641 19.24ZM341.641 16.84C342.553 16.84 343.009 16.288 343.009 15.184V6.016C343.009 4.912 342.553 4.36 341.641 4.36C340.729 4.36 340.273 4.912 340.273 6.016V15.184C340.273 16.288 340.729 16.84 341.641 16.84ZM353.77 2.2H356.05L349.426 19H347.146L353.77 2.2ZM357.626 7.72H365.45V9.592H357.626V7.72ZM357.626 11.608H365.45V13.48H357.626V11.608Z" fill="black"/>
<path d="M39.2922 20.2C38.2122 20.2 37.3855 19.8933 36.8122 19.28C36.2389 18.6667 35.9522 17.8 35.9522 16.68V9.32C35.9522 8.2 36.2389 7.33333 36.8122 6.72C37.3855 6.10667 38.2122 5.8 39.2922 5.8C40.3722 5.8 41.1989 6.10667 41.7722 6.72C42.3455 7.33333 42.6322 8.2 42.6322 9.32V16.68C42.6322 17.8 42.3455 18.6667 41.7722 19.28C41.1989 19.8933 40.3722 20.2 39.2922 20.2ZM39.2922 18.2C40.0522 18.2 40.4322 17.74 40.4322 16.82V9.18C40.4322 8.26 40.0522 7.8 39.2922 7.8C38.5322 7.8 38.1522 8.26 38.1522 9.18V16.82C38.1522 17.74 38.5322 18.2 39.2922 18.2ZM47.6 9.32H45.3V7.76C45.9267 7.76 46.4267 7.70667 46.8 7.6C47.1867 7.49333 47.4933 7.32 47.72 7.08C47.9467 6.82667 48.1467 6.46667 48.32 6H49.8V20H47.6V9.32Z" fill="black"/>
<path d="M74.8047 13H79.2047V15H74.8047V13Z" fill="black"/>
<circle cx="77" cy="14" r="8.75" stroke="black" stroke-width="2.5"/>
<path d="M8.71609 14.78H6.03609V13.22H8.71609V10.52H10.2761V13.22H12.9561V14.78H10.2761V17.52H8.71609V14.78Z" fill="black"/>
<circle cx="10" cy="14" r="8.75" stroke="black" stroke-width="2.5"/>
</svg>
