<svg width="167" height="52" viewBox="0 0 167 52" fill="none" xmlns="http://www.w3.org/2000/svg">
<rect x="1" y="1" width="164.83" height="49.39" rx="24.695" stroke="#F7C35F" stroke-width="2"/>
<path d="M40.75 21.93H44.5V32.555C44.5 33.4144 44.1875 34.1435 43.5625 34.7425C42.9635 35.3675 42.2344 35.68 41.375 35.68H30.125C29.2656 35.68 28.5234 35.3675 27.8984 34.7425C27.2995 34.1435 27 33.4144 27 32.555V21.93H30.75V20.68C30.75 19.2998 31.2318 18.1279 32.1953 17.1644C33.1849 16.1748 34.3698 15.68 35.75 15.68C37.1302 15.68 38.3021 16.1748 39.2656 17.1644C40.2552 18.1279 40.75 19.2998 40.75 20.68V21.93ZM33.25 20.68V21.93H38.25V20.68C38.25 20.0029 38.0026 19.417 37.5078 18.9222C37.013 18.4274 36.4271 18.18 35.75 18.18C35.0729 18.18 34.487 18.4274 33.9922 18.9222C33.4974 19.417 33.25 20.0029 33.25 20.68ZM38.8359 25.0941C39.0182 25.2763 39.2396 25.3675 39.5 25.3675C39.7604 25.3675 39.9818 25.2763 40.1641 25.0941C40.3464 24.9118 40.4375 24.6904 40.4375 24.43C40.4375 24.1696 40.3464 23.9482 40.1641 23.7659C39.9818 23.5836 39.7604 23.4925 39.5 23.4925C39.2396 23.4925 39.0182 23.5836 38.8359 23.7659C38.6536 23.9482 38.5625 24.1696 38.5625 24.43C38.5625 24.6904 38.6536 24.9118 38.8359 25.0941ZM31.3359 25.0941C31.5182 25.2763 31.7396 25.3675 32 25.3675C32.2604 25.3675 32.4818 25.2763 32.6641 25.0941C32.8464 24.9118 32.9375 24.6904 32.9375 24.43C32.9375 24.1696 32.8464 23.9482 32.6641 23.7659C32.4818 23.5836 32.2604 23.4925 32 23.4925C31.7396 23.4925 31.5182 23.5836 31.3359 23.7659C31.1536 23.9482 31.0625 24.1696 31.0625 24.43C31.0625 24.6904 31.1536 24.9118 31.3359 25.0941Z" fill="#04000B"/>
<path d="M64.588 33.13C63.8513 33.13 63.2187 33.0043 62.69 32.753C62.17 32.5017 61.6977 32.1247 61.273 31.622L62.443 30.452C62.7117 30.8073 63.0237 31.0847 63.379 31.284C63.7343 31.4747 64.1677 31.57 64.679 31.57C65.1383 31.57 65.5023 31.479 65.771 31.297C66.0483 31.115 66.187 30.8637 66.187 30.543C66.187 30.2657 66.109 30.0403 65.953 29.867C65.797 29.6937 65.589 29.5463 65.329 29.425C65.0777 29.3037 64.796 29.1953 64.484 29.1C64.1807 28.996 63.873 28.879 63.561 28.749C63.2577 28.619 62.976 28.4587 62.716 28.268C62.4647 28.0687 62.261 27.8173 62.105 27.514C61.949 27.202 61.871 26.812 61.871 26.344C61.871 25.7893 62.0053 25.317 62.274 24.927C62.5427 24.537 62.911 24.238 63.379 24.03C63.847 23.822 64.3757 23.718 64.965 23.718C65.589 23.718 66.1523 23.835 66.655 24.069C67.1577 24.303 67.5693 24.6063 67.89 24.979L66.72 26.149C66.4513 25.8543 66.174 25.6377 65.888 25.499C65.6107 25.3603 65.2943 25.291 64.939 25.291C64.5317 25.291 64.211 25.369 63.977 25.525C63.743 25.681 63.626 25.9063 63.626 26.201C63.626 26.4523 63.704 26.656 63.86 26.812C64.016 26.968 64.2197 27.1023 64.471 27.215C64.731 27.3277 65.0127 27.436 65.316 27.54C65.628 27.644 65.9357 27.761 66.239 27.891C66.551 28.021 66.8327 28.19 67.084 28.398C67.344 28.606 67.552 28.8747 67.708 29.204C67.864 29.5247 67.942 29.9233 67.942 30.4C67.942 31.2493 67.643 31.9167 67.045 32.402C66.447 32.8873 65.628 33.13 64.588 33.13ZM69.3374 33V23.861H71.1054V33H69.3374ZM75.0704 33V23.861H76.8384V33H75.0704ZM70.4554 29.061V27.501H75.5644V29.061H70.4554ZM82.9835 33.143C82.3162 33.143 81.6922 33.0217 81.1115 32.779C80.5395 32.5363 80.0368 32.2027 79.6035 31.778C79.1788 31.3447 78.8452 30.842 78.6025 30.27C78.3598 29.6893 78.2385 29.0697 78.2385 28.411C78.2385 27.7523 78.3555 27.1413 78.5895 26.578C78.8322 26.006 79.1658 25.5077 79.5905 25.083C80.0238 24.6497 80.5265 24.316 81.0985 24.082C81.6705 23.8393 82.2902 23.718 82.9575 23.718C83.6335 23.718 84.2575 23.8393 84.8295 24.082C85.4015 24.316 85.8998 24.6497 86.3245 25.083C86.7578 25.5077 87.0958 26.006 87.3385 26.578C87.5812 27.15 87.7025 27.7653 87.7025 28.424C87.7025 29.0827 87.5812 29.698 87.3385 30.27C87.0958 30.842 86.7578 31.3447 86.3245 31.778C85.8998 32.2027 85.4015 32.5363 84.8295 32.779C84.2662 33.0217 83.6508 33.143 82.9835 33.143ZM82.9575 31.492C83.5468 31.492 84.0582 31.362 84.4915 31.102C84.9248 30.842 85.2628 30.4823 85.5055 30.023C85.7568 29.5637 85.8825 29.0263 85.8825 28.411C85.8825 27.9603 85.8132 27.5487 85.6745 27.176C85.5358 26.8033 85.3365 26.4827 85.0765 26.214C84.8165 25.9367 84.5088 25.7243 84.1535 25.577C83.7982 25.4297 83.3995 25.356 82.9575 25.356C82.3855 25.356 81.8785 25.486 81.4365 25.746C81.0032 25.9973 80.6608 26.3527 80.4095 26.812C80.1668 27.2713 80.0455 27.8043 80.0455 28.411C80.0455 28.8703 80.1148 29.2907 80.2535 29.672C80.4008 30.0533 80.6002 30.3783 80.8515 30.647C81.1115 30.9157 81.4192 31.1237 81.7745 31.271C82.1385 31.4183 82.5328 31.492 82.9575 31.492ZM90.404 29.607V28.164H92.523C92.8003 28.164 93.0516 28.1077 93.277 27.995C93.5023 27.8823 93.68 27.722 93.81 27.514C93.94 27.2973 94.005 27.0373 94.005 26.734C94.005 26.4393 93.94 26.1837 93.81 25.967C93.68 25.7503 93.5023 25.5857 93.277 25.473C93.0516 25.3603 92.8003 25.304 92.523 25.304H90.404V23.861H92.705C93.2856 23.861 93.8056 23.978 94.265 24.212C94.733 24.446 95.1013 24.7797 95.37 25.213C95.6386 25.6377 95.773 26.1447 95.773 26.734C95.773 27.3233 95.6386 27.8347 95.37 28.268C95.1013 28.6927 94.733 29.022 94.265 29.256C93.8056 29.49 93.2856 29.607 92.705 29.607H90.404ZM89.104 33V23.861H90.872V33H89.104ZM99.4253 33V23.861H100.66L101.193 25.629V33H99.4253ZM105.743 33L100.322 25.98L100.66 23.861L106.081 30.881L105.743 33ZM105.743 33L105.236 31.284V23.861H107.017V33H105.743ZM113.148 33.143C112.48 33.143 111.856 33.0217 111.276 32.779C110.704 32.5363 110.201 32.2027 109.768 31.778C109.343 31.3447 109.009 30.842 108.767 30.27C108.524 29.6893 108.403 29.0697 108.403 28.411C108.403 27.7523 108.52 27.1413 108.754 26.578C108.996 26.006 109.33 25.5077 109.755 25.083C110.188 24.6497 110.691 24.316 111.263 24.082C111.835 23.8393 112.454 23.718 113.122 23.718C113.798 23.718 114.422 23.8393 114.994 24.082C115.566 24.316 116.064 24.6497 116.489 25.083C116.922 25.5077 117.26 26.006 117.503 26.578C117.745 27.15 117.867 27.7653 117.867 28.424C117.867 29.0827 117.745 29.698 117.503 30.27C117.26 30.842 116.922 31.3447 116.489 31.778C116.064 32.2027 115.566 32.5363 114.994 32.779C114.43 33.0217 113.815 33.143 113.148 33.143ZM113.122 31.492C113.711 31.492 114.222 31.362 114.656 31.102C115.089 30.842 115.427 30.4823 115.67 30.023C115.921 29.5637 116.047 29.0263 116.047 28.411C116.047 27.9603 115.977 27.5487 115.839 27.176C115.7 26.8033 115.501 26.4827 115.241 26.214C114.981 25.9367 114.673 25.7243 114.318 25.577C113.962 25.4297 113.564 25.356 113.122 25.356C112.55 25.356 112.043 25.486 111.601 25.746C111.167 25.9973 110.825 26.3527 110.574 26.812C110.331 27.2713 110.21 27.8043 110.21 28.411C110.21 28.8703 110.279 29.2907 110.418 29.672C110.565 30.0533 110.764 30.3783 111.016 30.647C111.276 30.9157 111.583 31.1237 111.939 31.271C112.303 31.4183 112.697 31.492 113.122 31.492ZM121.214 33L118.25 23.861H119.992L122.189 30.894H121.604L123.762 23.861H125.075L127.233 30.894H126.635L128.845 23.861H130.587L127.61 33H126.297L124.126 25.98H124.698L122.54 33H121.214Z" fill="#04000B"/>
</svg>
