<svg width="400" height="64" viewBox="0 0 400 64" fill="none" xmlns="http://www.w3.org/2000/svg">
<g clip-path="url(#clip0_71_122)">
<path d="M116.782 48.3125C116.782 48.0208 116.876 47.7812 117.064 47.5938C117.251 47.4062 117.491 47.3125 117.782 47.3125C118.032 47.3125 118.262 47.4062 118.47 47.5938C118.678 47.7812 118.782 48.0208 118.782 48.3125V63C118.782 63.2917 118.678 63.5312 118.47 63.7188C118.262 63.9062 118.032 64 117.782 64H75.1575C74.9075 64 74.6783 63.9062 74.47 63.7188C74.2616 63.5312 74.1575 63.2917 74.1575 63V37.75C74.1575 37.4583 74.2616 37.2188 74.47 37.0312C74.6783 36.8438 74.9075 36.75 75.1575 36.75C75.4491 36.75 75.6887 36.8438 75.8762 37.0312C76.0637 37.2188 76.1575 37.4583 76.1575 37.75V62H116.782V48.3125ZM84.0325 60.375C84.0325 60.6667 83.9283 60.9167 83.72 61.125C83.5116 61.3333 83.2825 61.4375 83.0325 61.4375C82.7408 61.4375 82.5012 61.3333 82.3137 61.125C82.1262 60.9167 82.0325 60.6667 82.0325 60.375V47.625C82.0325 46.6667 82.2096 45.7708 82.5637 44.9375C82.9179 44.1042 83.4075 43.375 84.0325 42.75C84.6575 42.125 85.3971 41.6354 86.2512 41.2812C87.1054 40.9271 87.9908 40.75 88.9075 40.75C89.8658 40.75 90.7616 40.9271 91.595 41.2812C92.4283 41.6354 93.1575 42.125 93.7825 42.75C94.4075 43.375 94.9075 44.1042 95.2825 44.9375C95.6575 45.7708 95.845 46.6667 95.845 47.625V60.375C95.845 60.6667 95.7408 60.9167 95.5325 61.125C95.3241 61.3333 95.095 61.4375 94.845 61.4375C94.5533 61.4375 94.3137 61.3333 94.1262 61.125C93.9387 60.9167 93.845 60.6667 93.845 60.375V47.625C93.845 46.9583 93.7096 46.3229 93.4387 45.7188C93.1679 45.1146 92.8241 44.6042 92.4075 44.1875C91.9491 43.7292 91.4179 43.375 90.8137 43.125C90.2096 42.875 89.5741 42.75 88.9075 42.75C88.2408 42.75 87.6054 42.875 87.0012 43.125C86.3971 43.375 85.8866 43.7292 85.47 44.1875C85.0116 44.6042 84.6575 45.1146 84.4075 45.7188C84.1575 46.3229 84.0325 46.9583 84.0325 47.625V60.375ZM102.282 52.4375H111.47V45.4375H102.282V52.4375ZM112.47 54.4375H101.282C100.991 54.4375 100.751 54.3333 100.564 54.125C100.376 53.9167 100.282 53.6875 100.282 53.4375V44.4375C100.282 44.1458 100.376 43.9062 100.564 43.7188C100.751 43.5312 100.991 43.4375 101.282 43.4375H112.47C112.72 43.4375 112.949 43.5312 113.157 43.7188C113.366 43.9062 113.47 44.1458 113.47 44.4375V53.4375C113.47 53.6875 113.366 53.9167 113.157 54.125C112.949 54.3333 112.72 54.4375 112.47 54.4375ZM90.595 55C90.8866 55 91.1262 54.9062 91.3137 54.7188C91.5012 54.5312 91.595 54.3125 91.595 54.0625C91.595 53.7708 91.5012 53.5208 91.3137 53.3125C91.1262 53.1042 90.8866 53 90.595 53C90.3033 53 90.0637 53.1042 89.8762 53.3125C89.6887 53.5208 89.595 53.7708 89.595 54.0625C89.595 54.3125 89.6887 54.5312 89.8762 54.7188C90.0637 54.9062 90.3033 55 90.595 55ZM91.7825 31V30.9375L92.4075 18.5625H88.595L86.345 31.0625C86.345 31.4375 86.4179 31.8021 86.5637 32.1562C86.7096 32.5104 86.8866 32.8125 87.095 33.0625C87.345 33.3125 87.6366 33.5104 87.97 33.6562C88.3033 33.8021 88.6575 33.875 89.0325 33.875C89.4075 33.875 89.7616 33.8021 90.095 33.6562C90.4283 33.5104 90.6991 33.3125 90.9075 33.0625C91.1991 32.8125 91.4075 32.5 91.5325 32.125C91.6575 31.75 91.72 31.375 91.72 31H91.7825ZM94.4075 18.5625L93.7825 31C93.7825 31.375 93.8554 31.75 94.0012 32.125C94.1471 32.5 94.345 32.8125 94.595 33.0625C94.8033 33.3125 95.0741 33.5104 95.4075 33.6562C95.7408 33.8021 96.095 33.875 96.47 33.875C96.845 33.875 97.1991 33.8021 97.5325 33.6562C97.8658 33.5104 98.1575 33.3125 98.4075 33.0625C98.6575 32.8125 98.845 32.5 98.97 32.125C99.095 31.75 99.1575 31.375 99.1575 31H99.22L98.845 24.75C98.845 24.4583 98.9387 24.2083 99.1262 24C99.3137 23.7917 99.5325 23.6875 99.7825 23.6875C100.074 23.6875 100.324 23.7812 100.532 23.9688C100.741 24.1562 100.845 24.375 100.845 24.625L101.157 30.9375V31H101.22C101.22 31.375 101.293 31.75 101.439 32.125C101.585 32.5 101.782 32.8125 102.032 33.0625C102.241 33.3125 102.512 33.5104 102.845 33.6562C103.178 33.8021 103.532 33.875 103.907 33.875C104.199 33.875 104.439 33.9792 104.626 34.1875C104.814 34.3958 104.907 34.625 104.907 34.875C104.907 35.1667 104.814 35.4062 104.626 35.5938C104.439 35.7812 104.199 35.875 103.907 35.875C103.241 35.875 102.626 35.75 102.064 35.5C101.501 35.25 100.991 34.8958 100.532 34.4375C100.491 34.3542 100.439 34.2812 100.376 34.2188C100.314 34.1562 100.262 34.0833 100.22 34C100.137 34.0833 100.064 34.1562 100.001 34.2188C99.9387 34.2812 99.8866 34.3542 99.845 34.4375C99.3866 34.8958 98.8762 35.25 98.3137 35.5C97.7512 35.75 97.1366 35.875 96.47 35.875C95.8033 35.875 95.1887 35.75 94.6262 35.5C94.0637 35.25 93.5533 34.8958 93.095 34.4375C93.0533 34.3542 93.0012 34.2812 92.9387 34.2188C92.8762 34.1562 92.8241 34.0833 92.7825 34C92.6991 34.0833 92.6262 34.1562 92.5637 34.2188C92.5012 34.2812 92.4491 34.3542 92.4075 34.4375C91.9491 34.8958 91.4387 35.25 90.8762 35.5C90.3137 35.75 89.6991 35.875 89.0325 35.875C88.3658 35.875 87.7512 35.75 87.1887 35.5C86.6262 35.25 86.1158 34.8958 85.6575 34.4375C85.6158 34.3542 85.5637 34.2812 85.5012 34.2188C85.4387 34.1562 85.3658 34.0833 85.2825 34C85.2408 34.0833 85.1887 34.1562 85.1262 34.2188C85.0637 34.2812 85.0116 34.3542 84.97 34.4375C84.5116 34.8958 84.0012 35.25 83.4387 35.5C82.8762 35.75 82.2616 35.875 81.595 35.875C80.9283 35.875 80.3137 35.75 79.7512 35.5C79.1887 35.25 78.6783 34.8958 78.22 34.4375C78.1783 34.3542 78.1262 34.2812 78.0637 34.2188C78.0012 34.1562 77.9283 34.0833 77.845 34C77.8033 34.0833 77.7512 34.1562 77.6887 34.2188C77.6262 34.2812 77.5741 34.3542 77.5325 34.4375C77.0741 34.8958 76.5637 35.25 76.0012 35.5C75.4387 35.75 74.8241 35.875 74.1575 35.875C73.6158 35.875 73.095 35.7812 72.595 35.5938C72.095 35.4062 71.6366 35.1458 71.22 34.8125C70.8033 34.4792 70.4491 34.0833 70.1575 33.625C69.8658 33.1667 69.6783 32.6667 69.595 32.125C69.5533 31.9583 69.5221 31.7812 69.5012 31.5938C69.4804 31.4062 69.47 31.2292 69.47 31.0625C69.5116 30.8958 69.5533 30.7292 69.595 30.5625C69.6366 30.3958 69.6783 30.2292 69.72 30.0625L73.845 19.9375C74.095 19.4375 74.3866 18.9792 74.72 18.5625C75.0533 18.1458 75.4283 17.7917 75.845 17.5C76.2616 17.1667 76.7304 16.9271 77.2512 16.7812C77.7721 16.6354 78.3033 16.5625 78.845 16.5625H97.095C97.3866 16.5625 97.6262 16.6562 97.8137 16.8438C98.0012 17.0312 98.095 17.2708 98.095 17.5625C98.095 17.8125 98.0012 18.0417 97.8137 18.25C97.6262 18.4583 97.3866 18.5625 97.095 18.5625H94.4075ZM86.595 18.5625H82.5325L78.9075 31.0625C78.9075 31.4792 78.9804 31.8542 79.1262 32.1875C79.2721 32.5208 79.4491 32.8125 79.6575 33.0625C79.9075 33.3125 80.1991 33.5104 80.5325 33.6562C80.8658 33.8021 81.22 33.875 81.595 33.875C81.97 33.875 82.3241 33.8021 82.6575 33.6562C82.9908 33.5104 83.2616 33.3125 83.47 33.0625C83.7616 32.8125 83.97 32.5 84.095 32.125C84.22 31.75 84.2825 31.375 84.2825 31H84.345C84.345 30.9583 84.345 30.9167 84.345 30.875C84.345 30.8333 84.345 30.8125 84.345 30.8125L86.595 18.5625ZM80.47 18.5625H78.845C78.5116 18.5625 78.1783 18.6042 77.845 18.6875C77.5116 18.7708 77.22 18.9167 76.97 19.125C76.72 19.2917 76.4804 19.5104 76.2512 19.7812C76.0221 20.0521 75.845 20.375 75.72 20.75L71.595 30.8125C71.5533 30.8958 71.5221 30.9688 71.5012 31.0312C71.4804 31.0938 71.47 31.1667 71.47 31.25C71.47 31.2917 71.47 31.3542 71.47 31.4375C71.47 31.5208 71.4908 31.6042 71.5325 31.6875C71.5741 32.0208 71.6783 32.3229 71.845 32.5938C72.0116 32.8646 72.22 33.1042 72.47 33.3125C72.72 33.4792 72.9804 33.6146 73.2512 33.7188C73.5221 33.8229 73.8241 33.875 74.1575 33.875C74.5325 33.875 74.8866 33.8021 75.22 33.6562C75.5533 33.5104 75.8241 33.3125 76.0325 33.0625C76.3241 32.8125 76.5325 32.5 76.6575 32.125C76.7825 31.75 76.845 31.375 76.845 31H76.9075C76.9075 30.9167 76.9075 30.8542 76.9075 30.8125C76.9075 30.7708 76.9075 30.7292 76.9075 30.6875L80.47 18.5625ZM99.7825 57.8125C99.4908 57.8125 99.2512 57.7083 99.0637 57.5C98.8762 57.2917 98.7825 57.0625 98.7825 56.8125C98.7825 56.5208 98.8762 56.2812 99.0637 56.0938C99.2512 55.9062 99.4908 55.8125 99.7825 55.8125H113.97C114.22 55.8125 114.439 55.9062 114.626 56.0938C114.814 56.2812 114.907 56.5208 114.907 56.8125C114.907 57.0625 114.814 57.2917 114.626 57.5C114.439 57.7083 114.22 57.8125 113.97 57.8125H99.7825ZM131.47 23.375L118.595 45.125C118.47 45.375 118.272 45.5312 118.001 45.5938C117.73 45.6562 117.47 45.625 117.22 45.5C117.137 45.4583 117.064 45.4062 117.001 45.3438C116.939 45.2812 116.887 45.2083 116.845 45.125L104.032 23.375C104.032 23.375 104.022 23.3646 104.001 23.3438C103.98 23.3229 103.97 23.3125 103.97 23.3125C103.678 22.7292 103.407 22.1354 103.157 21.5312C102.907 20.9271 102.699 20.3125 102.532 19.6875C102.366 19.0208 102.241 18.3646 102.157 17.7188C102.074 17.0729 102.032 16.3958 102.032 15.6875C102.032 13.5208 102.449 11.4896 103.282 9.59375C104.116 7.69792 105.241 6.04167 106.657 4.625C108.074 3.20833 109.73 2.08333 111.626 1.25C113.522 0.416668 115.574 0 117.782 0C119.949 0 121.98 0.416668 123.876 1.25C125.772 2.08333 127.428 3.20833 128.845 4.625C130.262 6.04167 131.387 7.69792 132.22 9.59375C133.053 11.4896 133.47 13.5208 133.47 15.6875C133.47 16.3958 133.428 17.0729 133.345 17.7188C133.262 18.3646 133.137 19.0208 132.97 19.6875C132.803 20.3125 132.595 20.9375 132.345 21.5625C132.095 22.1875 131.803 22.7917 131.47 23.375ZM117.782 6.1875C119.074 6.1875 120.303 6.4375 121.47 6.9375C122.637 7.4375 123.637 8.125 124.47 9C125.345 9.83333 126.032 10.8333 126.532 12C127.032 13.1667 127.282 14.3958 127.282 15.6875C127.282 17.0208 127.032 18.2708 126.532 19.4375C126.032 20.6042 125.345 21.6042 124.47 22.4375C123.637 23.3125 122.637 24 121.47 24.5C120.303 25 119.074 25.25 117.782 25.25C116.449 25.25 115.199 25 114.032 24.5C112.866 24 111.845 23.3125 110.97 22.4375C110.137 21.6042 109.47 20.6042 108.97 19.4375C108.47 18.2708 108.22 17.0208 108.22 15.6875C108.22 14.3958 108.47 13.1667 108.97 12C109.47 10.8333 110.137 9.83333 110.97 9C111.845 8.125 112.866 7.4375 114.032 6.9375C115.199 6.4375 116.449 6.1875 117.782 6.1875ZM123.095 10.375C122.387 9.70833 121.585 9.17708 120.689 8.78125C119.793 8.38542 118.824 8.1875 117.782 8.1875C116.741 8.1875 115.762 8.38542 114.845 8.78125C113.928 9.17708 113.116 9.70833 112.407 10.375C111.741 11.0833 111.21 11.8854 110.814 12.7812C110.418 13.6771 110.22 14.6458 110.22 15.6875C110.22 16.7292 110.418 17.7083 110.814 18.625C111.21 19.5417 111.741 20.3542 112.407 21.0625C113.116 21.7292 113.928 22.2604 114.845 22.6562C115.762 23.0521 116.741 23.25 117.782 23.25C118.824 23.25 119.793 23.0521 120.689 22.6562C121.585 22.2604 122.387 21.7292 123.095 21.0625C123.762 20.3542 124.293 19.5417 124.689 18.625C125.085 17.7083 125.282 16.7292 125.282 15.6875C125.282 14.6458 125.085 13.6771 124.689 12.7812C124.293 11.8854 123.762 11.0833 123.095 10.375ZM117.782 42.6875L129.782 22.375C130.032 21.875 130.262 21.3542 130.47 20.8125C130.678 20.2708 130.866 19.7292 131.032 19.1875C131.157 18.6042 131.262 18.0312 131.345 17.4688C131.428 16.9062 131.47 16.3125 131.47 15.6875C131.47 13.8125 131.105 12.0417 130.376 10.375C129.647 8.70833 128.678 7.25 127.47 6C126.22 4.79167 124.762 3.82292 123.095 3.09375C121.428 2.36458 119.657 2 117.782 2C115.866 2 114.074 2.36458 112.407 3.09375C110.741 3.82292 109.282 4.79167 108.032 6C106.782 7.25 105.803 8.70833 105.095 10.375C104.387 12.0417 104.032 13.8125 104.032 15.6875C104.032 16.3125 104.064 16.9062 104.126 17.4688C104.189 18.0312 104.303 18.6042 104.47 19.1875C104.595 19.7292 104.772 20.2604 105.001 20.7812C105.23 21.3021 105.47 21.8125 105.72 22.3125V22.375L117.782 42.6875ZM117.782 11.125C118.366 11.125 118.939 11.25 119.501 11.5C120.064 11.75 120.553 12.0833 120.97 12.5C121.387 12.9167 121.72 13.3958 121.97 13.9375C122.22 14.4792 122.345 15.0625 122.345 15.6875C122.345 16.3542 122.22 16.9583 121.97 17.5C121.72 18.0417 121.387 18.5208 120.97 18.9375C120.553 19.3542 120.074 19.6875 119.532 19.9375C118.991 20.1875 118.407 20.3125 117.782 20.3125C117.116 20.3125 116.512 20.1875 115.97 19.9375C115.428 19.6875 114.949 19.3542 114.532 18.9375C114.491 18.9375 114.47 18.9271 114.47 18.9062C114.47 18.8854 114.47 18.875 114.47 18.875C114.053 18.4583 113.73 17.9792 113.501 17.4375C113.272 16.8958 113.157 16.3125 113.157 15.6875C113.157 15.0625 113.282 14.4792 113.532 13.9375C113.782 13.3958 114.116 12.9167 114.532 12.5C114.532 12.5 114.532 12.4896 114.532 12.4688C114.532 12.4479 114.553 12.4375 114.595 12.4375C115.012 12.0208 115.491 11.6979 116.032 11.4688C116.574 11.2396 117.157 11.125 117.782 11.125ZM119.595 13.875C119.345 13.6667 119.064 13.4896 118.751 13.3438C118.439 13.1979 118.116 13.125 117.782 13.125C117.407 13.125 117.074 13.1875 116.782 13.3125C116.491 13.4375 116.22 13.625 115.97 13.875C115.97 13.875 115.96 13.875 115.939 13.875C115.918 13.875 115.907 13.875 115.907 13.875C115.699 14.125 115.522 14.4062 115.376 14.7188C115.23 15.0312 115.157 15.3542 115.157 15.6875C115.157 16.0625 115.22 16.3958 115.345 16.6875C115.47 16.9792 115.657 17.25 115.907 17.5C115.907 17.5 115.907 17.5104 115.907 17.5312C115.907 17.5521 115.907 17.5625 115.907 17.5625C116.157 17.7708 116.439 17.9479 116.751 18.0938C117.064 18.2396 117.407 18.3125 117.782 18.3125C118.116 18.3125 118.439 18.2396 118.751 18.0938C119.064 17.9479 119.345 17.7708 119.595 17.5625C119.803 17.3125 119.98 17.0312 120.126 16.7188C120.272 16.4062 120.345 16.0625 120.345 15.6875C120.345 15.3542 120.272 15.0312 120.126 14.7188C119.98 14.4062 119.803 14.125 119.595 13.875Z" fill="white"/>
</g>
<path d="M162.31 24.3C161.243 24.3 160.28 24.1133 159.42 23.74C158.567 23.36 157.863 22.82 157.31 22.12C156.763 21.4133 156.417 20.5733 156.27 19.6L159.11 19.18C159.31 20.0067 159.723 20.6433 160.35 21.09C160.977 21.5367 161.69 21.76 162.49 21.76C162.937 21.76 163.37 21.69 163.79 21.55C164.21 21.41 164.553 21.2033 164.82 20.93C165.093 20.6567 165.23 20.32 165.23 19.92C165.23 19.7733 165.207 19.6333 165.16 19.5C165.12 19.36 165.05 19.23 164.95 19.11C164.85 18.99 164.707 18.8767 164.52 18.77C164.34 18.6633 164.11 18.5667 163.83 18.48L160.09 17.38C159.81 17.3 159.483 17.1867 159.11 17.04C158.743 16.8933 158.387 16.6833 158.04 16.41C157.693 16.1367 157.403 15.7767 157.17 15.33C156.943 14.8767 156.83 14.3067 156.83 13.62C156.83 12.6533 157.073 11.85 157.56 11.21C158.047 10.57 158.697 10.0933 159.51 9.78C160.323 9.46667 161.223 9.31333 162.21 9.32C163.203 9.33333 164.09 9.50333 164.87 9.83C165.65 10.1567 166.303 10.6333 166.83 11.26C167.357 11.88 167.737 12.64 167.97 13.54L165.03 14.04C164.923 13.5733 164.727 13.18 164.44 12.86C164.153 12.54 163.81 12.2967 163.41 12.13C163.017 11.9633 162.603 11.8733 162.17 11.86C161.743 11.8467 161.34 11.9067 160.96 12.04C160.587 12.1667 160.28 12.3533 160.04 12.6C159.807 12.8467 159.69 13.14 159.69 13.48C159.69 13.7933 159.787 14.05 159.98 14.25C160.173 14.4433 160.417 14.6 160.71 14.72C161.003 14.84 161.303 14.94 161.61 15.02L164.11 15.7C164.483 15.8 164.897 15.9333 165.35 16.1C165.803 16.26 166.237 16.4867 166.65 16.78C167.07 17.0667 167.413 17.4467 167.68 17.92C167.953 18.3933 168.09 18.9933 168.09 19.72C168.09 20.4933 167.927 21.17 167.6 21.75C167.28 22.3233 166.847 22.8 166.3 23.18C165.753 23.5533 165.133 23.8333 164.44 24.02C163.753 24.2067 163.043 24.3 162.31 24.3ZM176.768 24C176.021 24.14 175.288 24.2 174.568 24.18C173.855 24.1667 173.215 24.0433 172.648 23.81C172.088 23.57 171.661 23.1867 171.368 22.66C171.101 22.1667 170.961 21.6667 170.948 21.16C170.935 20.6467 170.928 20.0667 170.928 19.42V10.2H173.648V19.26C173.648 19.68 173.651 20.06 173.658 20.4C173.671 20.7333 173.741 21 173.868 21.2C174.108 21.58 174.491 21.7867 175.018 21.82C175.545 21.8533 176.128 21.8267 176.768 21.74V24ZM169.088 15.3V13.2H176.768V15.3H169.088ZM183.449 24.3C182.362 24.3 181.409 24.0567 180.589 23.57C179.769 23.0833 179.129 22.4133 178.669 21.56C178.215 20.7 177.989 19.7133 177.989 18.6C177.989 17.4733 178.222 16.4833 178.689 15.63C179.155 14.77 179.799 14.1 180.619 13.62C181.439 13.14 182.382 12.9 183.449 12.9C184.535 12.9 185.489 13.1433 186.309 13.63C187.135 14.1167 187.779 14.79 188.239 15.65C188.699 16.5033 188.929 17.4867 188.929 18.6C188.929 19.72 188.695 20.71 188.229 21.57C187.769 22.4233 187.125 23.0933 186.299 23.58C185.479 24.06 184.529 24.3 183.449 24.3ZM183.449 21.76C184.322 21.76 184.972 21.4667 185.399 20.88C185.832 20.2867 186.049 19.5267 186.049 18.6C186.049 17.64 185.829 16.8733 185.389 16.3C184.955 15.7267 184.309 15.44 183.449 15.44C182.855 15.44 182.369 15.5733 181.989 15.84C181.609 16.1067 181.325 16.4767 181.139 16.95C180.959 17.4233 180.869 17.9733 180.869 18.6C180.869 19.5667 181.085 20.3367 181.519 20.91C181.959 21.4767 182.602 21.76 183.449 21.76ZM191.128 24V13.2H193.528V15.84L193.268 15.5C193.408 15.1267 193.594 14.7867 193.828 14.48C194.061 14.1733 194.348 13.92 194.688 13.72C194.948 13.56 195.231 13.4367 195.538 13.35C195.844 13.2567 196.161 13.2 196.488 13.18C196.814 13.1533 197.141 13.16 197.468 13.2V15.74C197.168 15.6467 196.818 15.6167 196.418 15.65C196.024 15.6767 195.668 15.7667 195.348 15.92C195.028 16.0667 194.758 16.2633 194.538 16.51C194.318 16.75 194.151 17.0367 194.038 17.37C193.924 17.6967 193.868 18.0667 193.868 18.48V24H191.128ZM204.195 24.3C203.088 24.3 202.111 24.0633 201.265 23.59C200.425 23.11 199.765 22.4533 199.285 21.62C198.811 20.78 198.575 19.82 198.575 18.74C198.575 17.56 198.808 16.5333 199.275 15.66C199.741 14.7867 200.385 14.11 201.205 13.63C202.025 13.1433 202.968 12.9 204.035 12.9C205.168 12.9 206.131 13.1667 206.925 13.7C207.718 14.2333 208.305 14.9833 208.685 15.95C209.065 16.9167 209.198 18.0533 209.085 19.36H206.395V18.36C206.395 17.26 206.218 16.47 205.865 15.99C205.518 15.5033 204.948 15.26 204.155 15.26C203.228 15.26 202.545 15.5433 202.105 16.11C201.671 16.67 201.455 17.5 201.455 18.6C201.455 19.6067 201.671 20.3867 202.105 20.94C202.545 21.4867 203.188 21.76 204.035 21.76C204.568 21.76 205.025 21.6433 205.405 21.41C205.785 21.1767 206.075 20.84 206.275 20.4L208.995 21.18C208.588 22.1667 207.945 22.9333 207.065 23.48C206.191 24.0267 205.235 24.3 204.195 24.3ZM200.615 19.36V17.34H207.775V19.36H200.615ZM215.547 24V9.6H218.267V21.46H224.467V24H215.547ZM231.027 24.3C229.94 24.3 228.987 24.0567 228.167 23.57C227.347 23.0833 226.707 22.4133 226.247 21.56C225.794 20.7 225.567 19.7133 225.567 18.6C225.567 17.4733 225.8 16.4833 226.267 15.63C226.734 14.77 227.377 14.1 228.197 13.62C229.017 13.14 229.96 12.9 231.027 12.9C232.114 12.9 233.067 13.1433 233.887 13.63C234.714 14.1167 235.357 14.79 235.817 15.65C236.277 16.5033 236.507 17.4867 236.507 18.6C236.507 19.72 236.274 20.71 235.807 21.57C235.347 22.4233 234.704 23.0933 233.877 23.58C233.057 24.06 232.107 24.3 231.027 24.3ZM231.027 21.76C231.9 21.76 232.55 21.4667 232.977 20.88C233.41 20.2867 233.627 19.5267 233.627 18.6C233.627 17.64 233.407 16.8733 232.967 16.3C232.534 15.7267 231.887 15.44 231.027 15.44C230.434 15.44 229.947 15.5733 229.567 15.84C229.187 16.1067 228.904 16.4767 228.717 16.95C228.537 17.4233 228.447 17.9733 228.447 18.6C228.447 19.5667 228.664 20.3367 229.097 20.91C229.537 21.4767 230.18 21.76 231.027 21.76ZM243.466 24.3C242.346 24.3 241.386 24.05 240.586 23.55C239.786 23.05 239.173 22.37 238.746 21.51C238.319 20.65 238.106 19.68 238.106 18.6C238.106 17.5067 238.326 16.53 238.766 15.67C239.213 14.81 239.839 14.1333 240.646 13.64C241.453 13.1467 242.406 12.9 243.506 12.9C244.779 12.9 245.846 13.2233 246.706 13.87C247.573 14.51 248.126 15.3867 248.366 16.5L245.646 17.22C245.486 16.66 245.206 16.2233 244.806 15.91C244.413 15.5967 243.966 15.44 243.466 15.44C242.893 15.44 242.423 15.58 242.056 15.86C241.689 16.1333 241.419 16.51 241.246 16.99C241.073 17.4633 240.986 18 240.986 18.6C240.986 19.54 241.193 20.3033 241.606 20.89C242.026 21.47 242.646 21.76 243.466 21.76C244.079 21.76 244.546 21.62 244.866 21.34C245.186 21.06 245.426 20.66 245.586 20.14L248.366 20.72C248.059 21.8667 247.479 22.75 246.626 23.37C245.773 23.99 244.719 24.3 243.466 24.3ZM253.171 24.3C252.397 24.3 251.741 24.1533 251.201 23.86C250.667 23.56 250.261 23.1633 249.981 22.67C249.707 22.17 249.571 21.62 249.571 21.02C249.571 20.52 249.647 20.0633 249.801 19.65C249.954 19.2367 250.201 18.8733 250.541 18.56C250.887 18.24 251.351 17.9733 251.931 17.76C252.331 17.6133 252.807 17.4833 253.361 17.37C253.914 17.2567 254.541 17.15 255.241 17.05C255.941 16.9433 256.711 16.8267 257.551 16.7L256.571 17.24C256.571 16.6 256.417 16.13 256.111 15.83C255.804 15.53 255.291 15.38 254.571 15.38C254.171 15.38 253.754 15.4767 253.321 15.67C252.887 15.8633 252.584 16.2067 252.411 16.7L249.951 15.92C250.224 15.0267 250.737 14.3 251.491 13.74C252.244 13.18 253.271 12.9 254.571 12.9C255.524 12.9 256.371 13.0467 257.111 13.34C257.851 13.6333 258.411 14.14 258.791 14.86C259.004 15.26 259.131 15.66 259.171 16.06C259.211 16.46 259.231 16.9067 259.231 17.4V24H256.851V21.78L257.191 22.24C256.664 22.9667 256.094 23.4933 255.481 23.82C254.874 24.14 254.104 24.3 253.171 24.3ZM253.751 22.16C254.251 22.16 254.671 22.0733 255.011 21.9C255.357 21.72 255.631 21.5167 255.831 21.29C256.037 21.0633 256.177 20.8733 256.251 20.72C256.391 20.4267 256.471 20.0867 256.491 19.7C256.517 19.3067 256.531 18.98 256.531 18.72L257.331 18.92C256.524 19.0533 255.871 19.1667 255.371 19.26C254.871 19.3467 254.467 19.4267 254.161 19.5C253.854 19.5733 253.584 19.6533 253.351 19.74C253.084 19.8467 252.867 19.9633 252.701 20.09C252.541 20.21 252.421 20.3433 252.341 20.49C252.267 20.6367 252.231 20.8 252.231 20.98C252.231 21.2267 252.291 21.44 252.411 21.62C252.537 21.7933 252.714 21.9267 252.941 22.02C253.167 22.1133 253.437 22.16 253.751 22.16ZM268.311 24C267.564 24.14 266.831 24.2 266.111 24.18C265.398 24.1667 264.758 24.0433 264.191 23.81C263.631 23.57 263.204 23.1867 262.911 22.66C262.644 22.1667 262.504 21.6667 262.491 21.16C262.478 20.6467 262.471 20.0667 262.471 19.42V10.2H265.191V19.26C265.191 19.68 265.194 20.06 265.201 20.4C265.214 20.7333 265.284 21 265.411 21.2C265.651 21.58 266.034 21.7867 266.561 21.82C267.088 21.8533 267.671 21.8267 268.311 21.74V24ZM260.631 15.3V13.2H268.311V15.3H260.631ZM274.992 24.3C273.905 24.3 272.952 24.0567 272.132 23.57C271.312 23.0833 270.672 22.4133 270.212 21.56C269.758 20.7 269.532 19.7133 269.532 18.6C269.532 17.4733 269.765 16.4833 270.232 15.63C270.698 14.77 271.342 14.1 272.162 13.62C272.982 13.14 273.925 12.9 274.992 12.9C276.078 12.9 277.032 13.1433 277.852 13.63C278.678 14.1167 279.322 14.79 279.782 15.65C280.242 16.5033 280.472 17.4867 280.472 18.6C280.472 19.72 280.238 20.71 279.772 21.57C279.312 22.4233 278.668 23.0933 277.842 23.58C277.022 24.06 276.072 24.3 274.992 24.3ZM274.992 21.76C275.865 21.76 276.515 21.4667 276.942 20.88C277.375 20.2867 277.592 19.5267 277.592 18.6C277.592 17.64 277.372 16.8733 276.932 16.3C276.498 15.7267 275.852 15.44 274.992 15.44C274.398 15.44 273.912 15.5733 273.532 15.84C273.152 16.1067 272.868 16.4767 272.682 16.95C272.502 17.4233 272.412 17.9733 272.412 18.6C272.412 19.5667 272.628 20.3367 273.062 20.91C273.502 21.4767 274.145 21.76 274.992 21.76ZM282.671 24V13.2H285.071V15.84L284.811 15.5C284.951 15.1267 285.137 14.7867 285.371 14.48C285.604 14.1733 285.891 13.92 286.231 13.72C286.491 13.56 286.774 13.4367 287.081 13.35C287.387 13.2567 287.704 13.2 288.031 13.18C288.357 13.1533 288.684 13.16 289.011 13.2V15.74C288.711 15.6467 288.361 15.6167 287.961 15.65C287.567 15.6767 287.211 15.7667 286.891 15.92C286.571 16.0667 286.301 16.2633 286.081 16.51C285.861 16.75 285.694 17.0367 285.581 17.37C285.467 17.6967 285.411 18.0667 285.411 18.48V24H282.671Z" fill="white"/>
<path d="M156.59 51V39.48H163.31V40.904H158.014V44.528H162.35V45.952H158.014V51H156.59ZM164.906 40.832V39.36H166.33V40.832H164.906ZM164.906 51V42.36H166.33V51H164.906ZM174.883 51V46.672C174.883 46.2613 174.845 45.8667 174.771 45.488C174.701 45.1093 174.576 44.7707 174.395 44.472C174.219 44.168 173.979 43.928 173.675 43.752C173.376 43.576 172.997 43.488 172.539 43.488C172.181 43.488 171.856 43.5493 171.563 43.672C171.275 43.7893 171.027 43.9707 170.819 44.216C170.611 44.4613 170.448 44.7707 170.331 45.144C170.219 45.512 170.163 45.9467 170.163 46.448L169.227 46.16C169.227 45.3227 169.376 44.6053 169.675 44.008C169.979 43.4053 170.403 42.944 170.947 42.624C171.496 42.2987 172.141 42.136 172.883 42.136C173.443 42.136 173.92 42.224 174.315 42.4C174.709 42.576 175.037 42.8107 175.299 43.104C175.56 43.392 175.765 43.7173 175.915 44.08C176.064 44.4373 176.168 44.8027 176.227 45.176C176.291 45.544 176.323 45.8933 176.323 46.224V51H174.883ZM168.723 51V42.36H170.003V44.672H170.163V51H168.723ZM181.716 51.24C180.911 51.24 180.22 51.04 179.644 50.64C179.068 50.2347 178.623 49.688 178.308 49C177.999 48.312 177.844 47.536 177.844 46.672C177.844 45.808 177.999 45.032 178.308 44.344C178.623 43.656 179.068 43.1147 179.644 42.72C180.22 42.32 180.908 42.12 181.708 42.12C182.524 42.12 183.21 42.3173 183.764 42.712C184.319 43.1067 184.738 43.648 185.02 44.336C185.308 45.024 185.452 45.8027 185.452 46.672C185.452 47.5307 185.308 48.3067 185.02 49C184.738 49.688 184.319 50.2347 183.764 50.64C183.21 51.04 182.527 51.24 181.716 51.24ZM181.892 49.936C182.474 49.936 182.951 49.7973 183.324 49.52C183.698 49.2373 183.972 48.8507 184.148 48.36C184.33 47.864 184.42 47.3013 184.42 46.672C184.42 46.032 184.33 45.4693 184.148 44.984C183.972 44.4933 183.7 44.112 183.332 43.84C182.964 43.5627 182.498 43.424 181.932 43.424C181.346 43.424 180.86 43.568 180.476 43.856C180.098 44.144 179.815 44.5333 179.628 45.024C179.447 45.5147 179.356 46.064 179.356 46.672C179.356 47.2853 179.45 47.84 179.636 48.336C179.823 48.8267 180.103 49.216 180.476 49.504C180.855 49.792 181.327 49.936 181.892 49.936ZM184.42 51V44.64H184.26V39.48H185.692V51H184.42ZM193.897 51V46.208L190.017 39.48H191.673L194.617 44.576L197.553 39.48H199.209L195.337 46.208V51H193.897ZM202.723 51.24C201.864 51.24 201.123 51.0453 200.499 50.656C199.88 50.2667 199.403 49.728 199.067 49.04C198.731 48.352 198.563 47.5627 198.563 46.672C198.563 45.7653 198.734 44.9707 199.075 44.288C199.416 43.6053 199.899 43.0747 200.523 42.696C201.147 42.312 201.88 42.12 202.723 42.12C203.587 42.12 204.331 42.3147 204.955 42.704C205.579 43.088 206.056 43.624 206.387 44.312C206.723 44.9947 206.891 45.7813 206.891 46.672C206.891 47.5733 206.723 48.368 206.387 49.056C206.051 49.7387 205.571 50.2747 204.947 50.664C204.323 51.048 203.582 51.24 202.723 51.24ZM202.723 49.888C203.619 49.888 204.286 49.5893 204.723 48.992C205.16 48.3947 205.379 47.6213 205.379 46.672C205.379 45.696 205.158 44.92 204.715 44.344C204.272 43.7627 203.608 43.472 202.723 43.472C202.12 43.472 201.624 43.608 201.235 43.88C200.846 44.152 200.555 44.528 200.363 45.008C200.171 45.488 200.075 46.0427 200.075 46.672C200.075 47.6427 200.299 48.4213 200.747 49.008C201.195 49.5947 201.854 49.888 202.723 49.888ZM211.933 51.224C211.378 51.224 210.901 51.136 210.501 50.96C210.106 50.784 209.778 50.5493 209.517 50.256C209.255 49.9627 209.05 49.6373 208.901 49.28C208.751 48.9227 208.645 48.5573 208.581 48.184C208.522 47.8107 208.493 47.4613 208.493 47.136V42.36H209.933V46.688C209.933 47.0933 209.97 47.4853 210.045 47.864C210.119 48.2427 210.245 48.584 210.421 48.888C210.602 49.192 210.842 49.432 211.141 49.608C211.445 49.784 211.823 49.872 212.277 49.872C212.634 49.872 212.959 49.8107 213.253 49.688C213.546 49.5653 213.797 49.384 214.005 49.144C214.213 48.8987 214.373 48.5893 214.485 48.216C214.597 47.8427 214.653 47.408 214.653 46.912L215.589 47.2C215.589 48.032 215.437 48.7493 215.133 49.352C214.834 49.9547 214.41 50.4187 213.861 50.744C213.317 51.064 212.674 51.224 211.933 51.224ZM214.813 51V48.688H214.653V42.36H216.085V51H214.813ZM218.324 51V42.36H219.596V44.448L219.388 44.176C219.49 43.9093 219.62 43.664 219.78 43.44C219.946 43.216 220.13 43.032 220.332 42.888C220.556 42.7067 220.81 42.568 221.092 42.472C221.375 42.376 221.663 42.32 221.956 42.304C222.25 42.2827 222.524 42.3013 222.78 42.36V43.696C222.482 43.616 222.154 43.5947 221.796 43.632C221.439 43.6693 221.108 43.8 220.804 44.024C220.527 44.2213 220.311 44.4613 220.156 44.744C220.007 45.0267 219.903 45.3333 219.844 45.664C219.786 45.9893 219.756 46.3227 219.756 46.664V51H218.324ZM227.496 51V39.48H228.936L234.944 48.48V39.48H236.384V51H234.944L228.936 41.992V51H227.496ZM242.365 51.24C241.517 51.24 240.776 51.0533 240.141 50.68C239.512 50.3013 239.021 49.776 238.669 49.104C238.317 48.4267 238.141 47.6373 238.141 46.736C238.141 45.792 238.315 44.976 238.661 44.288C239.008 43.5947 239.491 43.0613 240.109 42.688C240.733 42.3093 241.464 42.12 242.301 42.12C243.171 42.12 243.909 42.32 244.517 42.72C245.131 43.12 245.589 43.6907 245.893 44.432C246.203 45.1733 246.336 46.056 246.293 47.08H244.853V46.568C244.837 45.5067 244.621 44.7147 244.205 44.192C243.789 43.664 243.171 43.4 242.349 43.4C241.469 43.4 240.8 43.6827 240.341 44.248C239.883 44.8133 239.653 45.624 239.653 46.68C239.653 47.6987 239.883 48.488 240.341 49.048C240.8 49.608 241.453 49.888 242.301 49.888C242.872 49.888 243.368 49.7573 243.789 49.496C244.211 49.2347 244.541 48.8587 244.781 48.368L246.149 48.84C245.813 49.6027 245.307 50.1947 244.629 50.616C243.957 51.032 243.203 51.24 242.365 51.24ZM239.173 47.08V45.936H245.557V47.08H239.173ZM250.374 51.24C249.729 51.24 249.187 51.1227 248.75 50.888C248.318 50.648 247.99 50.3333 247.766 49.944C247.547 49.5547 247.438 49.128 247.438 48.664C247.438 48.2107 247.523 47.8187 247.694 47.488C247.87 47.152 248.115 46.8747 248.43 46.656C248.745 46.432 249.121 46.256 249.558 46.128C249.969 46.016 250.427 45.92 250.934 45.84C251.446 45.7547 251.963 45.6773 252.486 45.608C253.009 45.5387 253.497 45.472 253.95 45.408L253.438 45.704C253.454 44.936 253.299 44.368 252.974 44C252.654 43.632 252.099 43.448 251.31 43.448C250.787 43.448 250.329 43.568 249.934 43.808C249.545 44.0427 249.27 44.4267 249.11 44.96L247.758 44.552C247.966 43.7947 248.369 43.2 248.966 42.768C249.563 42.336 250.35 42.12 251.326 42.12C252.11 42.12 252.782 42.2613 253.342 42.544C253.907 42.8213 254.313 43.2427 254.558 43.808C254.681 44.0747 254.758 44.3653 254.79 44.68C254.822 44.9893 254.838 45.3147 254.838 45.656V51H253.574V48.928L253.87 49.12C253.545 49.8187 253.089 50.3467 252.502 50.704C251.921 51.0613 251.211 51.24 250.374 51.24ZM250.59 50.048C251.102 50.048 251.545 49.9573 251.918 49.776C252.297 49.5893 252.601 49.3467 252.83 49.048C253.059 48.744 253.209 48.4133 253.278 48.056C253.358 47.7893 253.401 47.4933 253.406 47.168C253.417 46.8373 253.422 46.584 253.422 46.408L253.918 46.624C253.454 46.688 252.998 46.7493 252.55 46.808C252.102 46.8667 251.678 46.9307 251.278 47C250.878 47.064 250.518 47.1413 250.198 47.232C249.963 47.3067 249.742 47.4027 249.534 47.52C249.331 47.6373 249.166 47.7893 249.038 47.976C248.915 48.1573 248.854 48.384 248.854 48.656C248.854 48.8907 248.913 49.1147 249.03 49.328C249.153 49.5413 249.339 49.7147 249.59 49.848C249.846 49.9813 250.179 50.048 250.59 50.048ZM256.918 51V42.36H258.19V44.448L257.982 44.176C258.083 43.9093 258.214 43.664 258.374 43.44C258.539 43.216 258.723 43.032 258.926 42.888C259.15 42.7067 259.403 42.568 259.686 42.472C259.969 42.376 260.257 42.32 260.55 42.304C260.843 42.2827 261.118 42.3013 261.374 42.36V43.696C261.075 43.616 260.747 43.5947 260.39 43.632C260.033 43.6693 259.702 43.8 259.398 44.024C259.121 44.2213 258.905 44.4613 258.75 44.744C258.601 45.0267 258.497 45.3333 258.438 45.664C258.379 45.9893 258.35 46.3227 258.35 46.664V51H256.918ZM266.475 51.24C265.627 51.24 264.885 51.0533 264.251 50.68C263.621 50.3013 263.131 49.776 262.779 49.104C262.427 48.4267 262.251 47.6373 262.251 46.736C262.251 45.792 262.424 44.976 262.771 44.288C263.117 43.5947 263.6 43.0613 264.219 42.688C264.843 42.3093 265.573 42.12 266.411 42.12C267.28 42.12 268.019 42.32 268.627 42.72C269.24 43.12 269.699 43.6907 270.003 44.432C270.312 45.1733 270.445 46.056 270.403 47.08H268.963V46.568C268.947 45.5067 268.731 44.7147 268.315 44.192C267.899 43.664 267.28 43.4 266.459 43.4C265.579 43.4 264.909 43.6827 264.451 44.248C263.992 44.8133 263.763 45.624 263.763 46.68C263.763 47.6987 263.992 48.488 264.451 49.048C264.909 49.608 265.563 49.888 266.411 49.888C266.981 49.888 267.477 49.7573 267.899 49.496C268.32 49.2347 268.651 48.8587 268.891 48.368L270.259 48.84C269.923 49.6027 269.416 50.1947 268.739 50.616C268.067 51.032 267.312 51.24 266.475 51.24ZM263.283 47.08V45.936H269.667V47.08H263.283ZM275.448 51.232C274.418 51.232 273.573 51.008 272.912 50.56C272.256 50.1067 271.853 49.4747 271.704 48.664L273.16 48.432C273.277 48.9013 273.546 49.2747 273.968 49.552C274.389 49.824 274.912 49.96 275.536 49.96C276.128 49.96 276.592 49.8373 276.928 49.592C277.264 49.3467 277.432 49.0133 277.432 48.592C277.432 48.3467 277.376 48.1493 277.264 48C277.152 47.8453 276.92 47.7013 276.568 47.568C276.221 47.4347 275.696 47.2747 274.992 47.088C274.229 46.8853 273.629 46.6747 273.192 46.456C272.754 46.2373 272.442 45.984 272.256 45.696C272.069 45.408 271.976 45.0587 271.976 44.648C271.976 44.1413 272.114 43.6987 272.392 43.32C272.669 42.936 273.056 42.64 273.552 42.432C274.053 42.224 274.634 42.12 275.296 42.12C275.952 42.12 276.538 42.224 277.056 42.432C277.573 42.64 277.989 42.936 278.304 43.32C278.624 43.6987 278.813 44.1413 278.872 44.648L277.416 44.912C277.346 44.448 277.122 44.0827 276.744 43.816C276.37 43.5493 275.888 43.408 275.296 43.392C274.736 43.3707 274.28 43.4693 273.928 43.688C273.581 43.9067 273.408 44.2027 273.408 44.576C273.408 44.784 273.472 44.9627 273.6 45.112C273.733 45.2613 273.976 45.4027 274.328 45.536C274.685 45.6693 275.202 45.8213 275.88 45.992C276.642 46.184 277.242 46.3947 277.68 46.624C278.122 46.848 278.437 47.1147 278.624 47.424C278.81 47.728 278.904 48.104 278.904 48.552C278.904 49.384 278.597 50.04 277.984 50.52C277.37 50.9947 276.525 51.232 275.448 51.232ZM285.492 51C284.98 51.1013 284.473 51.1413 283.972 51.12C283.476 51.104 283.033 51.0053 282.644 50.824C282.255 50.6373 281.959 50.3493 281.756 49.96C281.585 49.6187 281.492 49.2747 281.476 48.928C281.465 48.576 281.46 48.1787 281.46 47.736V39.96H282.884V47.672C282.884 48.024 282.887 48.3253 282.892 48.576C282.903 48.8267 282.959 49.0427 283.06 49.224C283.252 49.5653 283.556 49.7653 283.972 49.824C284.393 49.8827 284.9 49.8667 285.492 49.776V51ZM279.708 43.536V42.36H285.492V43.536H279.708ZM294.537 51.24C293.721 51.24 292.985 51.1013 292.329 50.824C291.679 50.5467 291.14 50.152 290.713 49.64C290.292 49.1227 290.017 48.512 289.889 47.808L291.361 47.576C291.548 48.3013 291.935 48.8693 292.521 49.28C293.113 49.6853 293.809 49.888 294.609 49.888C295.127 49.888 295.593 49.808 296.009 49.648C296.431 49.4827 296.764 49.248 297.009 48.944C297.255 48.64 297.377 48.28 297.377 47.864C297.377 47.608 297.332 47.3893 297.241 47.208C297.156 47.0213 297.036 46.864 296.881 46.736C296.732 46.6027 296.561 46.4907 296.369 46.4C296.177 46.3093 295.977 46.2347 295.769 46.176L292.833 45.304C292.513 45.208 292.204 45.088 291.905 44.944C291.607 44.7947 291.34 44.6107 291.105 44.392C290.871 44.168 290.684 43.9013 290.545 43.592C290.407 43.2773 290.337 42.9067 290.337 42.48C290.337 41.7973 290.513 41.216 290.865 40.736C291.223 40.2507 291.705 39.88 292.313 39.624C292.921 39.368 293.607 39.2427 294.369 39.248C295.143 39.2533 295.833 39.392 296.441 39.664C297.055 39.9307 297.561 40.3147 297.961 40.816C298.367 41.3173 298.639 41.9173 298.777 42.616L297.265 42.88C297.185 42.4107 297.007 42.008 296.729 41.672C296.457 41.3307 296.116 41.0693 295.705 40.888C295.295 40.7013 294.844 40.6053 294.353 40.6C293.884 40.5947 293.46 40.6693 293.081 40.824C292.703 40.9787 292.401 41.1947 292.177 41.472C291.953 41.744 291.841 42.0587 291.841 42.416C291.841 42.768 291.943 43.0533 292.145 43.272C292.348 43.4853 292.596 43.656 292.889 43.784C293.188 43.9067 293.479 44.008 293.761 44.088L295.953 44.72C296.204 44.7893 296.492 44.8853 296.817 45.008C297.148 45.1307 297.468 45.304 297.777 45.528C298.087 45.7467 298.343 46.04 298.545 46.408C298.748 46.7707 298.849 47.2293 298.849 47.784C298.849 48.3387 298.737 48.832 298.513 49.264C298.295 49.696 297.988 50.0587 297.593 50.352C297.199 50.64 296.74 50.8587 296.217 51.008C295.695 51.1627 295.135 51.24 294.537 51.24ZM305.352 51C304.84 51.1013 304.333 51.1413 303.832 51.12C303.336 51.104 302.893 51.0053 302.504 50.824C302.114 50.6373 301.818 50.3493 301.616 49.96C301.445 49.6187 301.352 49.2747 301.336 48.928C301.325 48.576 301.32 48.1787 301.32 47.736V39.96H302.744V47.672C302.744 48.024 302.746 48.3253 302.752 48.576C302.762 48.8267 302.818 49.0427 302.92 49.224C303.112 49.5653 303.416 49.7653 303.832 49.824C304.253 49.8827 304.76 49.8667 305.352 49.776V51ZM299.568 43.536V42.36H305.352V43.536H299.568ZM310.426 51.24C309.568 51.24 308.826 51.0453 308.202 50.656C307.584 50.2667 307.106 49.728 306.77 49.04C306.434 48.352 306.266 47.5627 306.266 46.672C306.266 45.7653 306.437 44.9707 306.778 44.288C307.12 43.6053 307.602 43.0747 308.226 42.696C308.85 42.312 309.584 42.12 310.426 42.12C311.29 42.12 312.034 42.3147 312.658 42.704C313.282 43.088 313.76 43.624 314.09 44.312C314.426 44.9947 314.594 45.7813 314.594 46.672C314.594 47.5733 314.426 48.368 314.09 49.056C313.754 49.7387 313.274 50.2747 312.65 50.664C312.026 51.048 311.285 51.24 310.426 51.24ZM310.426 49.888C311.322 49.888 311.989 49.5893 312.426 48.992C312.864 48.3947 313.082 47.6213 313.082 46.672C313.082 45.696 312.861 44.92 312.418 44.344C311.976 43.7627 311.312 43.472 310.426 43.472C309.824 43.472 309.328 43.608 308.938 43.88C308.549 44.152 308.258 44.528 308.066 45.008C307.874 45.488 307.778 46.0427 307.778 46.672C307.778 47.6427 308.002 48.4213 308.45 49.008C308.898 49.5947 309.557 49.888 310.426 49.888ZM316.356 51V42.36H317.628V44.448L317.42 44.176C317.521 43.9093 317.652 43.664 317.812 43.44C317.977 43.216 318.161 43.032 318.364 42.888C318.588 42.7067 318.841 42.568 319.124 42.472C319.406 42.376 319.694 42.32 319.988 42.304C320.281 42.2827 320.556 42.3013 320.812 42.36V43.696C320.513 43.616 320.185 43.5947 319.828 43.632C319.47 43.6693 319.14 43.8 318.836 44.024C318.558 44.2213 318.342 44.4613 318.188 44.744C318.038 45.0267 317.934 45.3333 317.876 45.664C317.817 45.9893 317.788 46.3227 317.788 46.664V51H316.356ZM325.912 51.24C325.064 51.24 324.323 51.0533 323.688 50.68C323.059 50.3013 322.568 49.776 322.216 49.104C321.864 48.4267 321.688 47.6373 321.688 46.736C321.688 45.792 321.861 44.976 322.208 44.288C322.555 43.5947 323.037 43.0613 323.656 42.688C324.28 42.3093 325.011 42.12 325.848 42.12C326.717 42.12 327.456 42.32 328.064 42.72C328.677 43.12 329.136 43.6907 329.44 44.432C329.749 45.1733 329.883 46.056 329.84 47.08H328.4V46.568C328.384 45.5067 328.168 44.7147 327.752 44.192C327.336 43.664 326.717 43.4 325.896 43.4C325.016 43.4 324.347 43.6827 323.888 44.248C323.429 44.8133 323.2 45.624 323.2 46.68C323.2 47.6987 323.429 48.488 323.888 49.048C324.347 49.608 325 49.888 325.848 49.888C326.419 49.888 326.915 49.7573 327.336 49.496C327.757 49.2347 328.088 48.8587 328.328 48.368L329.696 48.84C329.36 49.6027 328.853 50.1947 328.176 50.616C327.504 51.032 326.749 51.24 325.912 51.24ZM322.72 47.08V45.936H329.104V47.08H322.72Z" fill="#DADADA"/>
<defs>
<clipPath id="clip0_71_122">
<rect width="64" height="64" fill="white" transform="matrix(1 0 0 -1 69.47 64)"/>
</clipPath>
</defs>
</svg>
